<mxfile host="app.diagrams.net" agent="Mozilla/5.0 (Windows NT 10.0; Win64; x64) AppleWebKit/537.36 (KHTML, like Gecko) Chrome/139.0.0.0 Safari/537.36" version="28.1.1">
  <diagram name="PÃ¡gina-1" id="F6HKRljrmX31vETK7Njk">
    <mxGraphModel dx="842" dy="605" grid="0" gridSize="10" guides="1" tooltips="1" connect="1" arrows="1" fold="1" page="0" pageScale="1" pageWidth="827" pageHeight="1169" math="0" shadow="0">
      <root>
        <mxCell id="0" />
        <mxCell id="1" parent="0" />
        <mxCell id="hiGreWTvh3-nO5kUzk7D-419" value="" style="rounded=0;whiteSpace=wrap;html=1;" vertex="1" parent="1">
          <mxGeometry x="4544" y="778" width="953" height="391" as="geometry" />
        </mxCell>
        <mxCell id="hiGreWTvh3-nO5kUzk7D-369" value="" style="rounded=0;whiteSpace=wrap;html=1;" vertex="1" parent="1">
          <mxGeometry x="3457" y="780" width="1055" height="657" as="geometry" />
        </mxCell>
        <mxCell id="hiGreWTvh3-nO5kUzk7D-299" value="" style="rounded=0;whiteSpace=wrap;html=1;" vertex="1" parent="1">
          <mxGeometry x="2819" y="782" width="613" height="243" as="geometry" />
        </mxCell>
        <mxCell id="hiGreWTvh3-nO5kUzk7D-255" value="" style="rounded=0;whiteSpace=wrap;html=1;" vertex="1" parent="1">
          <mxGeometry x="1968" y="782" width="830" height="559" as="geometry" />
        </mxCell>
        <mxCell id="hiGreWTvh3-nO5kUzk7D-188" value="" style="rounded=0;whiteSpace=wrap;html=1;" vertex="1" parent="1">
          <mxGeometry x="1147" y="780" width="805" height="451" as="geometry" />
        </mxCell>
        <mxCell id="hiGreWTvh3-nO5kUzk7D-163" value="" style="rounded=0;whiteSpace=wrap;html=1;" vertex="1" parent="1">
          <mxGeometry x="-266" y="778" width="665" height="168" as="geometry" />
        </mxCell>
        <mxCell id="hiGreWTvh3-nO5kUzk7D-161" value="" style="rounded=0;whiteSpace=wrap;html=1;" vertex="1" parent="1">
          <mxGeometry x="408" y="778" width="724" height="330" as="geometry" />
        </mxCell>
        <mxCell id="hiGreWTvh3-nO5kUzk7D-3" value="Produto" style="swimlane;fontStyle=0;childLayout=stackLayout;horizontal=1;startSize=30;horizontalStack=0;resizeParent=1;resizeParentMax=0;resizeLast=0;collapsible=1;marginBottom=0;whiteSpace=wrap;html=1;fillColor=#d5e8d4;strokeColor=#82b366;" vertex="1" parent="1">
          <mxGeometry x="863" y="-22" width="205" height="660" as="geometry" />
        </mxCell>
        <mxCell id="hiGreWTvh3-nO5kUzk7D-4" value="Atributos" style="text;strokeColor=#6c8ebf;fillColor=#dae8fc;align=center;verticalAlign=middle;spacingLeft=4;spacingRight=4;overflow=hidden;points=[[0,0.5],[1,0.5]];portConstraint=eastwest;rotatable=0;whiteSpace=wrap;textDirection=ltr;labelBorderColor=none;" vertex="1" parent="hiGreWTvh3-nO5kUzk7D-3">
          <mxGeometry y="30" width="205" height="30" as="geometry" />
        </mxCell>
        <mxCell id="hiGreWTvh3-nO5kUzk7D-51" value="ID - Int? (auto increment)" style="text;align=center;verticalAlign=middle;spacingLeft=4;spacingRight=4;overflow=hidden;points=[[0,0.5],[1,0.5]];portConstraint=eastwest;rotatable=0;whiteSpace=wrap;textDirection=ltr;labelBorderColor=none;" vertex="1" parent="hiGreWTvh3-nO5kUzk7D-3">
          <mxGeometry y="60" width="205" height="30" as="geometry" />
        </mxCell>
        <mxCell id="hiGreWTvh3-nO5kUzk7D-70" value="nome - string?" style="text;align=center;verticalAlign=middle;spacingLeft=4;spacingRight=4;overflow=hidden;points=[[0,0.5],[1,0.5]];portConstraint=eastwest;rotatable=0;whiteSpace=wrap;textDirection=ltr;labelBorderColor=none;" vertex="1" parent="hiGreWTvh3-nO5kUzk7D-3">
          <mxGeometry y="90" width="205" height="30" as="geometry" />
        </mxCell>
        <mxCell id="hiGreWTvh3-nO5kUzk7D-71" value="prioridade - ProdutoPrioridade?" style="text;align=center;verticalAlign=middle;spacingLeft=4;spacingRight=4;overflow=hidden;points=[[0,0.5],[1,0.5]];portConstraint=eastwest;rotatable=0;whiteSpace=wrap;textDirection=ltr;labelBorderColor=none;" vertex="1" parent="hiGreWTvh3-nO5kUzk7D-3">
          <mxGeometry y="120" width="205" height="30" as="geometry" />
        </mxCell>
        <mxCell id="hiGreWTvh3-nO5kUzk7D-72" value="nivelSaude - ProdutoNivelSaude?" style="text;align=center;verticalAlign=middle;spacingLeft=4;spacingRight=4;overflow=hidden;points=[[0,0.5],[1,0.5]];portConstraint=eastwest;rotatable=0;whiteSpace=wrap;textDirection=ltr;labelBorderColor=none;" vertex="1" parent="hiGreWTvh3-nO5kUzk7D-3">
          <mxGeometry y="150" width="205" height="30" as="geometry" />
        </mxCell>
        <mxCell id="hiGreWTvh3-nO5kUzk7D-69" value="meta - Double?" style="text;align=center;verticalAlign=middle;spacingLeft=4;spacingRight=4;overflow=hidden;points=[[0,0.5],[1,0.5]];portConstraint=eastwest;rotatable=0;whiteSpace=wrap;textDirection=ltr;labelBorderColor=none;" vertex="1" parent="hiGreWTvh3-nO5kUzk7D-3">
          <mxGeometry y="180" width="205" height="30" as="geometry" />
        </mxCell>
        <mxCell id="hiGreWTvh3-nO5kUzk7D-73" value="precoMaximo - Double?" style="text;align=center;verticalAlign=middle;spacingLeft=4;spacingRight=4;overflow=hidden;points=[[0,0.5],[1,0.5]];portConstraint=eastwest;rotatable=0;whiteSpace=wrap;textDirection=ltr;labelBorderColor=none;" vertex="1" parent="hiGreWTvh3-nO5kUzk7D-3">
          <mxGeometry y="210" width="205" height="30" as="geometry" />
        </mxCell>
        <mxCell id="hiGreWTvh3-nO5kUzk7D-74" value="precoMinimo - Double?" style="text;align=center;verticalAlign=middle;spacingLeft=4;spacingRight=4;overflow=hidden;points=[[0,0.5],[1,0.5]];portConstraint=eastwest;rotatable=0;whiteSpace=wrap;textDirection=ltr;labelBorderColor=none;" vertex="1" parent="hiGreWTvh3-nO5kUzk7D-3">
          <mxGeometry y="240" width="205" height="30" as="geometry" />
        </mxCell>
        <mxCell id="hiGreWTvh3-nO5kUzk7D-75" value="precoMedio - Double?" style="text;align=center;verticalAlign=middle;spacingLeft=4;spacingRight=4;overflow=hidden;points=[[0,0.5],[1,0.5]];portConstraint=eastwest;rotatable=0;whiteSpace=wrap;textDirection=ltr;labelBorderColor=none;" vertex="1" parent="hiGreWTvh3-nO5kUzk7D-3">
          <mxGeometry y="270" width="205" height="30" as="geometry" />
        </mxCell>
        <mxCell id="hiGreWTvh3-nO5kUzk7D-76" value="tipo - TipoProduto?" style="text;align=center;verticalAlign=middle;spacingLeft=4;spacingRight=4;overflow=hidden;points=[[0,0.5],[1,0.5]];portConstraint=eastwest;rotatable=0;whiteSpace=wrap;textDirection=ltr;labelBorderColor=none;" vertex="1" parent="hiGreWTvh3-nO5kUzk7D-3">
          <mxGeometry y="300" width="205" height="30" as="geometry" />
        </mxCell>
        <mxCell id="hiGreWTvh3-nO5kUzk7D-77" value="fkUsuario - Usuario?" style="text;align=center;verticalAlign=middle;spacingLeft=4;spacingRight=4;overflow=hidden;points=[[0,0.5],[1,0.5]];portConstraint=eastwest;rotatable=0;whiteSpace=wrap;textDirection=ltr;labelBorderColor=none;" vertex="1" parent="hiGreWTvh3-nO5kUzk7D-3">
          <mxGeometry y="330" width="205" height="30" as="geometry" />
        </mxCell>
        <mxCell id="hiGreWTvh3-nO5kUzk7D-78" value="dataCadastro - LocalDateTime" style="text;align=center;verticalAlign=middle;spacingLeft=4;spacingRight=4;overflow=hidden;points=[[0,0.5],[1,0.5]];portConstraint=eastwest;rotatable=0;whiteSpace=wrap;textDirection=ltr;labelBorderColor=none;" vertex="1" parent="hiGreWTvh3-nO5kUzk7D-3">
          <mxGeometry y="360" width="205" height="30" as="geometry" />
        </mxCell>
        <mxCell id="hiGreWTvh3-nO5kUzk7D-6" value="Metodos" style="text;strokeColor=#d6b656;fillColor=#fff2cc;align=center;verticalAlign=middle;spacingLeft=4;spacingRight=4;overflow=hidden;points=[[0,0.5],[1,0.5]];portConstraint=eastwest;rotatable=0;whiteSpace=wrap;textDirection=ltr;labelBorderColor=none;" vertex="1" parent="hiGreWTvh3-nO5kUzk7D-3">
          <mxGeometry y="390" width="205" height="30" as="geometry" />
        </mxCell>
        <mxCell id="hiGreWTvh3-nO5kUzk7D-44" value="listarTodosProdutos()" style="text;align=center;verticalAlign=middle;spacingLeft=4;spacingRight=4;overflow=hidden;points=[[0,0.5],[1,0.5]];portConstraint=eastwest;rotatable=0;whiteSpace=wrap;textDirection=ltr;labelBorderColor=none;" vertex="1" parent="hiGreWTvh3-nO5kUzk7D-3">
          <mxGeometry y="420" width="205" height="30" as="geometry" />
        </mxCell>
        <mxCell id="hiGreWTvh3-nO5kUzk7D-79" value="getProdutoID()" style="text;align=center;verticalAlign=middle;spacingLeft=4;spacingRight=4;overflow=hidden;points=[[0,0.5],[1,0.5]];portConstraint=eastwest;rotatable=0;whiteSpace=wrap;textDirection=ltr;labelBorderColor=none;" vertex="1" parent="hiGreWTvh3-nO5kUzk7D-3">
          <mxGeometry y="450" width="205" height="30" as="geometry" />
        </mxCell>
        <mxCell id="hiGreWTvh3-nO5kUzk7D-80" value="getProdutoTipo()" style="text;align=center;verticalAlign=middle;spacingLeft=4;spacingRight=4;overflow=hidden;points=[[0,0.5],[1,0.5]];portConstraint=eastwest;rotatable=0;whiteSpace=wrap;textDirection=ltr;labelBorderColor=none;" vertex="1" parent="hiGreWTvh3-nO5kUzk7D-3">
          <mxGeometry y="480" width="205" height="30" as="geometry" />
        </mxCell>
        <mxCell id="hiGreWTvh3-nO5kUzk7D-81" value="adicionarImagemProduto()" style="text;align=center;verticalAlign=middle;spacingLeft=4;spacingRight=4;overflow=hidden;points=[[0,0.5],[1,0.5]];portConstraint=eastwest;rotatable=0;whiteSpace=wrap;textDirection=ltr;labelBorderColor=none;" vertex="1" parent="hiGreWTvh3-nO5kUzk7D-3">
          <mxGeometry y="510" width="205" height="30" as="geometry" />
        </mxCell>
        <mxCell id="hiGreWTvh3-nO5kUzk7D-82" value="getFoto()" style="text;align=center;verticalAlign=middle;spacingLeft=4;spacingRight=4;overflow=hidden;points=[[0,0.5],[1,0.5]];portConstraint=eastwest;rotatable=0;whiteSpace=wrap;textDirection=ltr;labelBorderColor=none;" vertex="1" parent="hiGreWTvh3-nO5kUzk7D-3">
          <mxGeometry y="540" width="205" height="30" as="geometry" />
        </mxCell>
        <mxCell id="hiGreWTvh3-nO5kUzk7D-83" value="criarProduto()" style="text;align=center;verticalAlign=middle;spacingLeft=4;spacingRight=4;overflow=hidden;points=[[0,0.5],[1,0.5]];portConstraint=eastwest;rotatable=0;whiteSpace=wrap;textDirection=ltr;labelBorderColor=none;" vertex="1" parent="hiGreWTvh3-nO5kUzk7D-3">
          <mxGeometry y="570" width="205" height="30" as="geometry" />
        </mxCell>
        <mxCell id="hiGreWTvh3-nO5kUzk7D-84" value="deletarProduto()" style="text;align=center;verticalAlign=middle;spacingLeft=4;spacingRight=4;overflow=hidden;points=[[0,0.5],[1,0.5]];portConstraint=eastwest;rotatable=0;whiteSpace=wrap;textDirection=ltr;labelBorderColor=none;" vertex="1" parent="hiGreWTvh3-nO5kUzk7D-3">
          <mxGeometry y="600" width="205" height="30" as="geometry" />
        </mxCell>
        <mxCell id="hiGreWTvh3-nO5kUzk7D-85" value="atualizarTodoProduto()" style="text;align=center;verticalAlign=middle;spacingLeft=4;spacingRight=4;overflow=hidden;points=[[0,0.5],[1,0.5]];portConstraint=eastwest;rotatable=0;whiteSpace=wrap;textDirection=ltr;labelBorderColor=none;" vertex="1" parent="hiGreWTvh3-nO5kUzk7D-3">
          <mxGeometry y="630" width="205" height="30" as="geometry" />
        </mxCell>
        <mxCell id="hiGreWTvh3-nO5kUzk7D-7" value="Tipo Produto" style="swimlane;fontStyle=0;childLayout=stackLayout;horizontal=1;startSize=30;horizontalStack=0;resizeParent=1;resizeParentMax=0;resizeLast=0;collapsible=1;marginBottom=0;whiteSpace=wrap;html=1;fillColor=#d5e8d4;strokeColor=#82b366;" vertex="1" parent="1">
          <mxGeometry x="1082" y="-22" width="157" height="300" as="geometry" />
        </mxCell>
        <mxCell id="hiGreWTvh3-nO5kUzk7D-8" value="Atributos" style="text;strokeColor=#6c8ebf;fillColor=#dae8fc;align=center;verticalAlign=middle;spacingLeft=4;spacingRight=4;overflow=hidden;points=[[0,0.5],[1,0.5]];portConstraint=eastwest;rotatable=0;whiteSpace=wrap;textDirection=ltr;labelBorderColor=none;" vertex="1" parent="hiGreWTvh3-nO5kUzk7D-7">
          <mxGeometry y="30" width="157" height="30" as="geometry" />
        </mxCell>
        <mxCell id="hiGreWTvh3-nO5kUzk7D-52" value="ID - Int? (auto increment)" style="text;align=center;verticalAlign=middle;spacingLeft=4;spacingRight=4;overflow=hidden;points=[[0,0.5],[1,0.5]];portConstraint=eastwest;rotatable=0;whiteSpace=wrap;textDirection=ltr;labelBorderColor=none;" vertex="1" parent="hiGreWTvh3-nO5kUzk7D-7">
          <mxGeometry y="60" width="157" height="30" as="geometry" />
        </mxCell>
        <mxCell id="hiGreWTvh3-nO5kUzk7D-86" value="tipo - String?" style="text;align=center;verticalAlign=middle;spacingLeft=4;spacingRight=4;overflow=hidden;points=[[0,0.5],[1,0.5]];portConstraint=eastwest;rotatable=0;whiteSpace=wrap;textDirection=ltr;labelBorderColor=none;" vertex="1" parent="hiGreWTvh3-nO5kUzk7D-7">
          <mxGeometry y="90" width="157" height="30" as="geometry" />
        </mxCell>
        <mxCell id="hiGreWTvh3-nO5kUzk7D-87" value="meta - Double?" style="text;align=center;verticalAlign=middle;spacingLeft=4;spacingRight=4;overflow=hidden;points=[[0,0.5],[1,0.5]];portConstraint=eastwest;rotatable=0;whiteSpace=wrap;textDirection=ltr;labelBorderColor=none;" vertex="1" parent="hiGreWTvh3-nO5kUzk7D-7">
          <mxGeometry y="120" width="157" height="30" as="geometry" />
        </mxCell>
        <mxCell id="hiGreWTvh3-nO5kUzk7D-10" value="Metodos" style="text;strokeColor=#d6b656;fillColor=#fff2cc;align=center;verticalAlign=middle;spacingLeft=4;spacingRight=4;overflow=hidden;points=[[0,0.5],[1,0.5]];portConstraint=eastwest;rotatable=0;whiteSpace=wrap;textDirection=ltr;labelBorderColor=none;" vertex="1" parent="hiGreWTvh3-nO5kUzk7D-7">
          <mxGeometry y="150" width="157" height="30" as="geometry" />
        </mxCell>
        <mxCell id="hiGreWTvh3-nO5kUzk7D-45" value="listarTodosTiposProdutos()" style="text;align=center;verticalAlign=middle;spacingLeft=4;spacingRight=4;overflow=hidden;points=[[0,0.5],[1,0.5]];portConstraint=eastwest;rotatable=0;whiteSpace=wrap;textDirection=ltr;labelBorderColor=none;" vertex="1" parent="hiGreWTvh3-nO5kUzk7D-7">
          <mxGeometry y="180" width="157" height="30" as="geometry" />
        </mxCell>
        <mxCell id="hiGreWTvh3-nO5kUzk7D-88" value="cadastrarTipoProduto()" style="text;align=center;verticalAlign=middle;spacingLeft=4;spacingRight=4;overflow=hidden;points=[[0,0.5],[1,0.5]];portConstraint=eastwest;rotatable=0;whiteSpace=wrap;textDirection=ltr;labelBorderColor=none;" vertex="1" parent="hiGreWTvh3-nO5kUzk7D-7">
          <mxGeometry y="210" width="157" height="30" as="geometry" />
        </mxCell>
        <mxCell id="hiGreWTvh3-nO5kUzk7D-89" value="deletarTipoProduto()" style="text;align=center;verticalAlign=middle;spacingLeft=4;spacingRight=4;overflow=hidden;points=[[0,0.5],[1,0.5]];portConstraint=eastwest;rotatable=0;whiteSpace=wrap;textDirection=ltr;labelBorderColor=none;" vertex="1" parent="hiGreWTvh3-nO5kUzk7D-7">
          <mxGeometry y="240" width="157" height="30" as="geometry" />
        </mxCell>
        <mxCell id="hiGreWTvh3-nO5kUzk7D-90" value="atualizarTIpoProduto()" style="text;align=center;verticalAlign=middle;spacingLeft=4;spacingRight=4;overflow=hidden;points=[[0,0.5],[1,0.5]];portConstraint=eastwest;rotatable=0;whiteSpace=wrap;textDirection=ltr;labelBorderColor=none;" vertex="1" parent="hiGreWTvh3-nO5kUzk7D-7">
          <mxGeometry y="270" width="157" height="30" as="geometry" />
        </mxCell>
        <mxCell id="hiGreWTvh3-nO5kUzk7D-11" value="Transacao" style="swimlane;fontStyle=0;childLayout=stackLayout;horizontal=1;startSize=30;horizontalStack=0;resizeParent=1;resizeParentMax=0;resizeLast=0;collapsible=1;marginBottom=0;whiteSpace=wrap;html=1;fillColor=#d5e8d4;strokeColor=#82b366;" vertex="1" parent="1">
          <mxGeometry x="1252" y="-22" width="235" height="510" as="geometry" />
        </mxCell>
        <mxCell id="hiGreWTvh3-nO5kUzk7D-12" value="Atributos" style="text;strokeColor=#6c8ebf;fillColor=#dae8fc;align=center;verticalAlign=middle;spacingLeft=4;spacingRight=4;overflow=hidden;points=[[0,0.5],[1,0.5]];portConstraint=eastwest;rotatable=0;whiteSpace=wrap;textDirection=ltr;labelBorderColor=none;" vertex="1" parent="hiGreWTvh3-nO5kUzk7D-11">
          <mxGeometry y="30" width="235" height="30" as="geometry" />
        </mxCell>
        <mxCell id="hiGreWTvh3-nO5kUzk7D-53" value="Id - Int? (auto increment)" style="text;align=center;verticalAlign=middle;spacingLeft=4;spacingRight=4;overflow=hidden;points=[[0,0.5],[1,0.5]];portConstraint=eastwest;rotatable=0;whiteSpace=wrap;textDirection=ltr;labelBorderColor=none;" vertex="1" parent="hiGreWTvh3-nO5kUzk7D-11">
          <mxGeometry y="60" width="235" height="30" as="geometry" />
        </mxCell>
        <mxCell id="hiGreWTvh3-nO5kUzk7D-92" value="fkUsuario - Usuario?" style="text;align=center;verticalAlign=middle;spacingLeft=4;spacingRight=4;overflow=hidden;points=[[0,0.5],[1,0.5]];portConstraint=eastwest;rotatable=0;whiteSpace=wrap;textDirection=ltr;labelBorderColor=none;" vertex="1" parent="hiGreWTvh3-nO5kUzk7D-11">
          <mxGeometry y="90" width="235" height="30" as="geometry" />
        </mxCell>
        <mxCell id="hiGreWTvh3-nO5kUzk7D-91" value="fkParceiroComercial - ParceiroComercial?" style="text;align=center;verticalAlign=middle;spacingLeft=4;spacingRight=4;overflow=hidden;points=[[0,0.5],[1,0.5]];portConstraint=eastwest;rotatable=0;whiteSpace=wrap;textDirection=ltr;labelBorderColor=none;" vertex="1" parent="hiGreWTvh3-nO5kUzk7D-11">
          <mxGeometry y="120" width="235" height="30" as="geometry" />
        </mxCell>
        <mxCell id="hiGreWTvh3-nO5kUzk7D-98" value="fkProduto - Produto?" style="text;align=center;verticalAlign=middle;spacingLeft=4;spacingRight=4;overflow=hidden;points=[[0,0.5],[1,0.5]];portConstraint=eastwest;rotatable=0;whiteSpace=wrap;textDirection=ltr;labelBorderColor=none;" vertex="1" parent="hiGreWTvh3-nO5kUzk7D-11">
          <mxGeometry y="150" width="235" height="30" as="geometry" />
        </mxCell>
        <mxCell id="hiGreWTvh3-nO5kUzk7D-93" value="categoria - CategoriaEnum?" style="text;align=center;verticalAlign=middle;spacingLeft=4;spacingRight=4;overflow=hidden;points=[[0,0.5],[1,0.5]];portConstraint=eastwest;rotatable=0;whiteSpace=wrap;textDirection=ltr;labelBorderColor=none;" vertex="1" parent="hiGreWTvh3-nO5kUzk7D-11">
          <mxGeometry y="180" width="235" height="30" as="geometry" />
        </mxCell>
        <mxCell id="hiGreWTvh3-nO5kUzk7D-94" value="tipoOperacao - tipoOperacaoEnum?" style="text;align=center;verticalAlign=middle;spacingLeft=4;spacingRight=4;overflow=hidden;points=[[0,0.5],[1,0.5]];portConstraint=eastwest;rotatable=0;whiteSpace=wrap;textDirection=ltr;labelBorderColor=none;" vertex="1" parent="hiGreWTvh3-nO5kUzk7D-11">
          <mxGeometry y="210" width="235" height="30" as="geometry" />
        </mxCell>
        <mxCell id="hiGreWTvh3-nO5kUzk7D-95" value="peso - Double?" style="text;align=center;verticalAlign=middle;spacingLeft=4;spacingRight=4;overflow=hidden;points=[[0,0.5],[1,0.5]];portConstraint=eastwest;rotatable=0;whiteSpace=wrap;textDirection=ltr;labelBorderColor=none;" vertex="1" parent="hiGreWTvh3-nO5kUzk7D-11">
          <mxGeometry y="240" width="235" height="30" as="geometry" />
        </mxCell>
        <mxCell id="hiGreWTvh3-nO5kUzk7D-96" value="valorTotal - Double?" style="text;align=center;verticalAlign=middle;spacingLeft=4;spacingRight=4;overflow=hidden;points=[[0,0.5],[1,0.5]];portConstraint=eastwest;rotatable=0;whiteSpace=wrap;textDirection=ltr;labelBorderColor=none;" vertex="1" parent="hiGreWTvh3-nO5kUzk7D-11">
          <mxGeometry y="270" width="235" height="30" as="geometry" />
        </mxCell>
        <mxCell id="hiGreWTvh3-nO5kUzk7D-97" value="Metodos" style="text;align=center;verticalAlign=middle;spacingLeft=4;spacingRight=4;overflow=hidden;points=[[0,0.5],[1,0.5]];portConstraint=eastwest;rotatable=0;whiteSpace=wrap;textDirection=ltr;labelBorderColor=none;" vertex="1" parent="hiGreWTvh3-nO5kUzk7D-11">
          <mxGeometry y="300" width="235" height="30" as="geometry" />
        </mxCell>
        <mxCell id="hiGreWTvh3-nO5kUzk7D-14" value="Metodos" style="text;strokeColor=#d6b656;fillColor=#fff2cc;align=center;verticalAlign=middle;spacingLeft=4;spacingRight=4;overflow=hidden;points=[[0,0.5],[1,0.5]];portConstraint=eastwest;rotatable=0;whiteSpace=wrap;textDirection=ltr;labelBorderColor=none;" vertex="1" parent="hiGreWTvh3-nO5kUzk7D-11">
          <mxGeometry y="330" width="235" height="30" as="geometry" />
        </mxCell>
        <mxCell id="hiGreWTvh3-nO5kUzk7D-46" value="post()" style="text;align=center;verticalAlign=middle;spacingLeft=4;spacingRight=4;overflow=hidden;points=[[0,0.5],[1,0.5]];portConstraint=eastwest;rotatable=0;whiteSpace=wrap;textDirection=ltr;labelBorderColor=none;" vertex="1" parent="hiGreWTvh3-nO5kUzk7D-11">
          <mxGeometry y="360" width="235" height="30" as="geometry" />
        </mxCell>
        <mxCell id="hiGreWTvh3-nO5kUzk7D-99" value="listaTransacoes()" style="text;align=center;verticalAlign=middle;spacingLeft=4;spacingRight=4;overflow=hidden;points=[[0,0.5],[1,0.5]];portConstraint=eastwest;rotatable=0;whiteSpace=wrap;textDirection=ltr;labelBorderColor=none;" vertex="1" parent="hiGreWTvh3-nO5kUzk7D-11">
          <mxGeometry y="390" width="235" height="30" as="geometry" />
        </mxCell>
        <mxCell id="hiGreWTvh3-nO5kUzk7D-100" value="filtrarTransacoes()" style="text;align=center;verticalAlign=middle;spacingLeft=4;spacingRight=4;overflow=hidden;points=[[0,0.5],[1,0.5]];portConstraint=eastwest;rotatable=0;whiteSpace=wrap;textDirection=ltr;labelBorderColor=none;" vertex="1" parent="hiGreWTvh3-nO5kUzk7D-11">
          <mxGeometry y="420" width="235" height="30" as="geometry" />
        </mxCell>
        <mxCell id="hiGreWTvh3-nO5kUzk7D-101" value="atualizarTransacao()" style="text;align=center;verticalAlign=middle;spacingLeft=4;spacingRight=4;overflow=hidden;points=[[0,0.5],[1,0.5]];portConstraint=eastwest;rotatable=0;whiteSpace=wrap;textDirection=ltr;labelBorderColor=none;" vertex="1" parent="hiGreWTvh3-nO5kUzk7D-11">
          <mxGeometry y="450" width="235" height="30" as="geometry" />
        </mxCell>
        <mxCell id="hiGreWTvh3-nO5kUzk7D-102" value="delete()" style="text;align=center;verticalAlign=middle;spacingLeft=4;spacingRight=4;overflow=hidden;points=[[0,0.5],[1,0.5]];portConstraint=eastwest;rotatable=0;whiteSpace=wrap;textDirection=ltr;labelBorderColor=none;" vertex="1" parent="hiGreWTvh3-nO5kUzk7D-11">
          <mxGeometry y="480" width="235" height="30" as="geometry" />
        </mxCell>
        <mxCell id="hiGreWTvh3-nO5kUzk7D-15" value="Parceiro Comercial" style="swimlane;fontStyle=0;childLayout=stackLayout;horizontal=1;startSize=30;horizontalStack=0;resizeParent=1;resizeParentMax=0;resizeLast=0;collapsible=1;marginBottom=0;whiteSpace=wrap;html=1;fillColor=#d5e8d4;strokeColor=#82b366;" vertex="1" parent="1">
          <mxGeometry x="631" y="-22" width="223" height="270" as="geometry" />
        </mxCell>
        <mxCell id="hiGreWTvh3-nO5kUzk7D-16" value="Atributos" style="text;strokeColor=#6c8ebf;fillColor=#dae8fc;align=center;verticalAlign=middle;spacingLeft=4;spacingRight=4;overflow=hidden;points=[[0,0.5],[1,0.5]];portConstraint=eastwest;rotatable=0;whiteSpace=wrap;textDirection=ltr;labelBorderColor=none;" vertex="1" parent="hiGreWTvh3-nO5kUzk7D-15">
          <mxGeometry y="30" width="223" height="30" as="geometry" />
        </mxCell>
        <mxCell id="hiGreWTvh3-nO5kUzk7D-50" value="tipoComercial -Â  tipoComercialEnum?" style="text;align=center;verticalAlign=middle;spacingLeft=4;spacingRight=4;overflow=hidden;points=[[0,0.5],[1,0.5]];portConstraint=eastwest;rotatable=0;whiteSpace=wrap;textDirection=ltr;labelBorderColor=none;" vertex="1" parent="hiGreWTvh3-nO5kUzk7D-15">
          <mxGeometry y="60" width="223" height="30" as="geometry" />
        </mxCell>
        <mxCell id="hiGreWTvh3-nO5kUzk7D-65" value="papelComercial - papelComecialEnum?" style="text;align=center;verticalAlign=middle;spacingLeft=4;spacingRight=4;overflow=hidden;points=[[0,0.5],[1,0.5]];portConstraint=eastwest;rotatable=0;whiteSpace=wrap;textDirection=ltr;labelBorderColor=none;" vertex="1" parent="hiGreWTvh3-nO5kUzk7D-15">
          <mxGeometry y="90" width="223" height="30" as="geometry" />
        </mxCell>
        <mxCell id="hiGreWTvh3-nO5kUzk7D-18" value="Metodos" style="text;strokeColor=#d6b656;fillColor=#fff2cc;align=center;verticalAlign=middle;spacingLeft=4;spacingRight=4;overflow=hidden;points=[[0,0.5],[1,0.5]];portConstraint=eastwest;rotatable=0;whiteSpace=wrap;textDirection=ltr;labelBorderColor=none;" vertex="1" parent="hiGreWTvh3-nO5kUzk7D-15">
          <mxGeometry y="120" width="223" height="30" as="geometry" />
        </mxCell>
        <mxCell id="hiGreWTvh3-nO5kUzk7D-43" value="getListaParceiroComercial()" style="text;align=center;verticalAlign=middle;spacingLeft=4;spacingRight=4;overflow=hidden;points=[[0,0.5],[1,0.5]];portConstraint=eastwest;rotatable=0;whiteSpace=wrap;textDirection=ltr;labelBorderColor=none;" vertex="1" parent="hiGreWTvh3-nO5kUzk7D-15">
          <mxGeometry y="150" width="223" height="30" as="geometry" />
        </mxCell>
        <mxCell id="hiGreWTvh3-nO5kUzk7D-66" value="post()" style="text;align=center;verticalAlign=middle;spacingLeft=4;spacingRight=4;overflow=hidden;points=[[0,0.5],[1,0.5]];portConstraint=eastwest;rotatable=0;whiteSpace=wrap;textDirection=ltr;labelBorderColor=none;" vertex="1" parent="hiGreWTvh3-nO5kUzk7D-15">
          <mxGeometry y="180" width="223" height="30" as="geometry" />
        </mxCell>
        <mxCell id="hiGreWTvh3-nO5kUzk7D-67" value="delete()" style="text;align=center;verticalAlign=middle;spacingLeft=4;spacingRight=4;overflow=hidden;points=[[0,0.5],[1,0.5]];portConstraint=eastwest;rotatable=0;whiteSpace=wrap;textDirection=ltr;labelBorderColor=none;" vertex="1" parent="hiGreWTvh3-nO5kUzk7D-15">
          <mxGeometry y="210" width="223" height="30" as="geometry" />
        </mxCell>
        <mxCell id="hiGreWTvh3-nO5kUzk7D-68" value="atualizarParceiro()" style="text;align=center;verticalAlign=middle;spacingLeft=4;spacingRight=4;overflow=hidden;points=[[0,0.5],[1,0.5]];portConstraint=eastwest;rotatable=0;whiteSpace=wrap;textDirection=ltr;labelBorderColor=none;" vertex="1" parent="hiGreWTvh3-nO5kUzk7D-15">
          <mxGeometry y="240" width="223" height="30" as="geometry" />
        </mxCell>
        <mxCell id="hiGreWTvh3-nO5kUzk7D-19" value="LogTransacao" style="swimlane;fontStyle=0;childLayout=stackLayout;horizontal=1;startSize=30;horizontalStack=0;resizeParent=1;resizeParentMax=0;resizeLast=0;collapsible=1;marginBottom=0;whiteSpace=wrap;html=1;fillColor=#d5e8d4;strokeColor=#82b366;" vertex="1" parent="1">
          <mxGeometry x="424" y="-22" width="198" height="420" as="geometry" />
        </mxCell>
        <mxCell id="hiGreWTvh3-nO5kUzk7D-21" value="Atributos&#xa;" style="text;strokeColor=#6c8ebf;fillColor=#dae8fc;align=center;verticalAlign=middle;spacingLeft=4;spacingRight=4;overflow=hidden;points=[[0,0.5],[1,0.5]];portConstraint=eastwest;rotatable=0;whiteSpace=wrap;textDirection=ltr;labelBorderColor=none;" vertex="1" parent="hiGreWTvh3-nO5kUzk7D-19">
          <mxGeometry y="30" width="198" height="30" as="geometry" />
        </mxCell>
        <mxCell id="hiGreWTvh3-nO5kUzk7D-49" value="ID -Â  Int? (auto increment)" style="text;align=center;verticalAlign=middle;spacingLeft=4;spacingRight=4;overflow=hidden;points=[[0,0.5],[1,0.5]];portConstraint=eastwest;rotatable=0;whiteSpace=wrap;textDirection=ltr;labelBorderColor=none;" vertex="1" parent="hiGreWTvh3-nO5kUzk7D-19">
          <mxGeometry y="60" width="198" height="30" as="geometry" />
        </mxCell>
        <mxCell id="hiGreWTvh3-nO5kUzk7D-56" value="valorTotal - Double?" style="text;align=center;verticalAlign=middle;spacingLeft=4;spacingRight=4;overflow=hidden;points=[[0,0.5],[1,0.5]];portConstraint=eastwest;rotatable=0;whiteSpace=wrap;textDirection=ltr;labelBorderColor=none;" vertex="1" parent="hiGreWTvh3-nO5kUzk7D-19">
          <mxGeometry y="90" width="198" height="30" as="geometry" />
        </mxCell>
        <mxCell id="hiGreWTvh3-nO5kUzk7D-57" value="tipoEdicao - logTransacaoEnum?" style="text;align=center;verticalAlign=middle;spacingLeft=4;spacingRight=4;overflow=hidden;points=[[0,0.5],[1,0.5]];portConstraint=eastwest;rotatable=0;whiteSpace=wrap;textDirection=ltr;labelBorderColor=none;" vertex="1" parent="hiGreWTvh3-nO5kUzk7D-19">
          <mxGeometry y="120" width="198" height="30" as="geometry" />
        </mxCell>
        <mxCell id="hiGreWTvh3-nO5kUzk7D-58" value="tipoOperacao - tipoOperacaoEnum" style="text;align=center;verticalAlign=middle;spacingLeft=4;spacingRight=4;overflow=hidden;points=[[0,0.5],[1,0.5]];portConstraint=eastwest;rotatable=0;whiteSpace=wrap;textDirection=ltr;labelBorderColor=none;" vertex="1" parent="hiGreWTvh3-nO5kUzk7D-19">
          <mxGeometry y="150" width="198" height="30" as="geometry" />
        </mxCell>
        <mxCell id="hiGreWTvh3-nO5kUzk7D-59" value="dataLog - LocalDateTime" style="text;align=center;verticalAlign=middle;spacingLeft=4;spacingRight=4;overflow=hidden;points=[[0,0.5],[1,0.5]];portConstraint=eastwest;rotatable=0;whiteSpace=wrap;textDirection=ltr;labelBorderColor=none;" vertex="1" parent="hiGreWTvh3-nO5kUzk7D-19">
          <mxGeometry y="180" width="198" height="30" as="geometry" />
        </mxCell>
        <mxCell id="hiGreWTvh3-nO5kUzk7D-60" value="fkTransacao - Transacao?" style="text;align=center;verticalAlign=middle;spacingLeft=4;spacingRight=4;overflow=hidden;points=[[0,0.5],[1,0.5]];portConstraint=eastwest;rotatable=0;whiteSpace=wrap;textDirection=ltr;labelBorderColor=none;" vertex="1" parent="hiGreWTvh3-nO5kUzk7D-19">
          <mxGeometry y="210" width="198" height="30" as="geometry" />
        </mxCell>
        <mxCell id="hiGreWTvh3-nO5kUzk7D-61" value="fkTransacaoProduto - Produto?" style="text;align=center;verticalAlign=middle;spacingLeft=4;spacingRight=4;overflow=hidden;points=[[0,0.5],[1,0.5]];portConstraint=eastwest;rotatable=0;whiteSpace=wrap;textDirection=ltr;labelBorderColor=none;" vertex="1" parent="hiGreWTvh3-nO5kUzk7D-19">
          <mxGeometry y="240" width="198" height="30" as="geometry" />
        </mxCell>
        <mxCell id="hiGreWTvh3-nO5kUzk7D-22" value="Metodos" style="text;strokeColor=#d6b656;fillColor=#fff2cc;align=center;verticalAlign=middle;spacingLeft=4;spacingRight=4;overflow=hidden;points=[[0,0.5],[1,0.5]];portConstraint=eastwest;rotatable=0;whiteSpace=wrap;textDirection=ltr;labelBorderColor=none;" vertex="1" parent="hiGreWTvh3-nO5kUzk7D-19">
          <mxGeometry y="270" width="198" height="30" as="geometry" />
        </mxCell>
        <mxCell id="hiGreWTvh3-nO5kUzk7D-41" value="listar()" style="text;align=center;verticalAlign=middle;spacingLeft=4;spacingRight=4;overflow=hidden;points=[[0,0.5],[1,0.5]];portConstraint=eastwest;rotatable=0;whiteSpace=wrap;textDirection=ltr;labelBorderColor=none;" vertex="1" parent="hiGreWTvh3-nO5kUzk7D-19">
          <mxGeometry y="300" width="198" height="30" as="geometry" />
        </mxCell>
        <mxCell id="hiGreWTvh3-nO5kUzk7D-62" value="buscarPorId()" style="text;align=center;verticalAlign=middle;spacingLeft=4;spacingRight=4;overflow=hidden;points=[[0,0.5],[1,0.5]];portConstraint=eastwest;rotatable=0;whiteSpace=wrap;textDirection=ltr;labelBorderColor=none;" vertex="1" parent="hiGreWTvh3-nO5kUzk7D-19">
          <mxGeometry y="330" width="198" height="30" as="geometry" />
        </mxCell>
        <mxCell id="hiGreWTvh3-nO5kUzk7D-63" value="atualizar()" style="text;align=center;verticalAlign=middle;spacingLeft=4;spacingRight=4;overflow=hidden;points=[[0,0.5],[1,0.5]];portConstraint=eastwest;rotatable=0;whiteSpace=wrap;textDirection=ltr;labelBorderColor=none;" vertex="1" parent="hiGreWTvh3-nO5kUzk7D-19">
          <mxGeometry y="360" width="198" height="30" as="geometry" />
        </mxCell>
        <mxCell id="hiGreWTvh3-nO5kUzk7D-64" value="deletar()" style="text;align=center;verticalAlign=middle;spacingLeft=4;spacingRight=4;overflow=hidden;points=[[0,0.5],[1,0.5]];portConstraint=eastwest;rotatable=0;whiteSpace=wrap;textDirection=ltr;labelBorderColor=none;" vertex="1" parent="hiGreWTvh3-nO5kUzk7D-19">
          <mxGeometry y="390" width="198" height="30" as="geometry" />
        </mxCell>
        <mxCell id="hiGreWTvh3-nO5kUzk7D-23" value="EstoqueAtualController" style="swimlane;fontStyle=0;childLayout=stackLayout;horizontal=1;startSize=30;horizontalStack=0;resizeParent=1;resizeParentMax=0;resizeLast=0;collapsible=1;marginBottom=0;whiteSpace=wrap;html=1;fillColor=#d5e8d4;strokeColor=#82b366;" vertex="1" parent="1">
          <mxGeometry x="251" y="-22" width="165" height="120" as="geometry" />
        </mxCell>
        <mxCell id="hiGreWTvh3-nO5kUzk7D-26" value="Metodos" style="text;strokeColor=#d6b656;fillColor=#fff2cc;align=center;verticalAlign=middle;spacingLeft=4;spacingRight=4;overflow=hidden;points=[[0,0.5],[1,0.5]];portConstraint=eastwest;rotatable=0;whiteSpace=wrap;textDirection=ltr;labelBorderColor=none;" vertex="1" parent="hiGreWTvh3-nO5kUzk7D-23">
          <mxGeometry y="30" width="165" height="30" as="geometry" />
        </mxCell>
        <mxCell id="hiGreWTvh3-nO5kUzk7D-40" value="ListarEstoqueAtual()" style="text;align=center;verticalAlign=middle;spacingLeft=4;spacingRight=4;overflow=hidden;points=[[0,0.5],[1,0.5]];portConstraint=eastwest;rotatable=0;whiteSpace=wrap;textDirection=ltr;labelBorderColor=none;" vertex="1" parent="hiGreWTvh3-nO5kUzk7D-23">
          <mxGeometry y="60" width="165" height="30" as="geometry" />
        </mxCell>
        <mxCell id="hiGreWTvh3-nO5kUzk7D-55" value="BuscarProdutoPorNome()" style="text;align=center;verticalAlign=middle;spacingLeft=4;spacingRight=4;overflow=hidden;points=[[0,0.5],[1,0.5]];portConstraint=eastwest;rotatable=0;whiteSpace=wrap;textDirection=ltr;labelBorderColor=none;" vertex="1" parent="hiGreWTvh3-nO5kUzk7D-23">
          <mxGeometry y="90" width="165" height="30" as="geometry" />
        </mxCell>
        <mxCell id="hiGreWTvh3-nO5kUzk7D-27" value="Usuario" style="swimlane;fontStyle=0;childLayout=stackLayout;horizontal=1;startSize=30;horizontalStack=0;resizeParent=1;resizeParentMax=0;resizeLast=0;collapsible=1;marginBottom=0;whiteSpace=wrap;html=1;fillColor=#d5e8d4;strokeColor=#82b366;" vertex="1" parent="1">
          <mxGeometry x="1501" y="-23" width="249" height="570" as="geometry" />
        </mxCell>
        <mxCell id="hiGreWTvh3-nO5kUzk7D-28" value="Atributos" style="text;strokeColor=#6c8ebf;fillColor=#dae8fc;align=center;verticalAlign=middle;spacingLeft=4;spacingRight=4;overflow=hidden;points=[[0,0.5],[1,0.5]];portConstraint=eastwest;rotatable=0;whiteSpace=wrap;textDirection=ltr;labelBorderColor=none;" vertex="1" parent="hiGreWTvh3-nO5kUzk7D-27">
          <mxGeometry y="30" width="249" height="30" as="geometry" />
        </mxCell>
        <mxCell id="hiGreWTvh3-nO5kUzk7D-54" value="codigoFuncionario - Int? (auto increment)" style="text;align=center;verticalAlign=middle;spacingLeft=4;spacingRight=4;overflow=hidden;points=[[0,0.5],[1,0.5]];portConstraint=eastwest;rotatable=0;whiteSpace=wrap;textDirection=ltr;labelBorderColor=none;" vertex="1" parent="hiGreWTvh3-nO5kUzk7D-27">
          <mxGeometry y="60" width="249" height="30" as="geometry" />
        </mxCell>
        <mxCell id="hiGreWTvh3-nO5kUzk7D-103" value="nome - String?" style="text;align=center;verticalAlign=middle;spacingLeft=4;spacingRight=4;overflow=hidden;points=[[0,0.5],[1,0.5]];portConstraint=eastwest;rotatable=0;whiteSpace=wrap;textDirection=ltr;labelBorderColor=none;" vertex="1" parent="hiGreWTvh3-nO5kUzk7D-27">
          <mxGeometry y="90" width="249" height="30" as="geometry" />
        </mxCell>
        <mxCell id="hiGreWTvh3-nO5kUzk7D-104" value="senha - String?" style="text;align=center;verticalAlign=middle;spacingLeft=4;spacingRight=4;overflow=hidden;points=[[0,0.5],[1,0.5]];portConstraint=eastwest;rotatable=0;whiteSpace=wrap;textDirection=ltr;labelBorderColor=none;" vertex="1" parent="hiGreWTvh3-nO5kUzk7D-27">
          <mxGeometry y="120" width="249" height="30" as="geometry" />
        </mxCell>
        <mxCell id="hiGreWTvh3-nO5kUzk7D-105" value="dataCriacao -LocalDateTime" style="text;align=center;verticalAlign=middle;spacingLeft=4;spacingRight=4;overflow=hidden;points=[[0,0.5],[1,0.5]];portConstraint=eastwest;rotatable=0;whiteSpace=wrap;textDirection=ltr;labelBorderColor=none;" vertex="1" parent="hiGreWTvh3-nO5kUzk7D-27">
          <mxGeometry y="150" width="249" height="30" as="geometry" />
        </mxCell>
        <mxCell id="hiGreWTvh3-nO5kUzk7D-106" value="primeiroAcesso - Boolean" style="text;align=center;verticalAlign=middle;spacingLeft=4;spacingRight=4;overflow=hidden;points=[[0,0.5],[1,0.5]];portConstraint=eastwest;rotatable=0;whiteSpace=wrap;textDirection=ltr;labelBorderColor=none;" vertex="1" parent="hiGreWTvh3-nO5kUzk7D-27">
          <mxGeometry y="180" width="249" height="30" as="geometry" />
        </mxCell>
        <mxCell id="hiGreWTvh3-nO5kUzk7D-107" value="tipoUsuario - tipoUsuarioEnum?" style="text;align=center;verticalAlign=middle;spacingLeft=4;spacingRight=4;overflow=hidden;points=[[0,0.5],[1,0.5]];portConstraint=eastwest;rotatable=0;whiteSpace=wrap;textDirection=ltr;labelBorderColor=none;" vertex="1" parent="hiGreWTvh3-nO5kUzk7D-27">
          <mxGeometry y="210" width="249" height="30" as="geometry" />
        </mxCell>
        <mxCell id="hiGreWTvh3-nO5kUzk7D-108" value="ativo - Boolean?" style="text;align=center;verticalAlign=middle;spacingLeft=4;spacingRight=4;overflow=hidden;points=[[0,0.5],[1,0.5]];portConstraint=eastwest;rotatable=0;whiteSpace=wrap;textDirection=ltr;labelBorderColor=none;" vertex="1" parent="hiGreWTvh3-nO5kUzk7D-27">
          <mxGeometry y="240" width="249" height="30" as="geometry" />
        </mxCell>
        <mxCell id="hiGreWTvh3-nO5kUzk7D-109" value="online - Boolean?" style="text;align=center;verticalAlign=middle;spacingLeft=4;spacingRight=4;overflow=hidden;points=[[0,0.5],[1,0.5]];portConstraint=eastwest;rotatable=0;whiteSpace=wrap;textDirection=ltr;labelBorderColor=none;" vertex="1" parent="hiGreWTvh3-nO5kUzk7D-27">
          <mxGeometry y="270" width="249" height="30" as="geometry" />
        </mxCell>
        <mxCell id="hiGreWTvh3-nO5kUzk7D-30" value="Metodos" style="text;strokeColor=#d6b656;fillColor=#fff2cc;align=center;verticalAlign=middle;spacingLeft=4;spacingRight=4;overflow=hidden;points=[[0,0.5],[1,0.5]];portConstraint=eastwest;rotatable=0;whiteSpace=wrap;textDirection=ltr;labelBorderColor=none;" vertex="1" parent="hiGreWTvh3-nO5kUzk7D-27">
          <mxGeometry y="300" width="249" height="30" as="geometry" />
        </mxCell>
        <mxCell id="hiGreWTvh3-nO5kUzk7D-47" value="listarTodosUsuarios()" style="text;align=center;verticalAlign=middle;spacingLeft=4;spacingRight=4;overflow=hidden;points=[[0,0.5],[1,0.5]];portConstraint=eastwest;rotatable=0;whiteSpace=wrap;textDirection=ltr;labelBorderColor=none;" vertex="1" parent="hiGreWTvh3-nO5kUzk7D-27">
          <mxGeometry y="330" width="249" height="30" as="geometry" />
        </mxCell>
        <mxCell id="hiGreWTvh3-nO5kUzk7D-110" value="listarUsuarioId()" style="text;align=center;verticalAlign=middle;spacingLeft=4;spacingRight=4;overflow=hidden;points=[[0,0.5],[1,0.5]];portConstraint=eastwest;rotatable=0;whiteSpace=wrap;textDirection=ltr;labelBorderColor=none;" vertex="1" parent="hiGreWTvh3-nO5kUzk7D-27">
          <mxGeometry y="360" width="249" height="30" as="geometry" />
        </mxCell>
        <mxCell id="hiGreWTvh3-nO5kUzk7D-111" value="patchEditarNomeUsuario()" style="text;align=center;verticalAlign=middle;spacingLeft=4;spacingRight=4;overflow=hidden;points=[[0,0.5],[1,0.5]];portConstraint=eastwest;rotatable=0;whiteSpace=wrap;textDirection=ltr;labelBorderColor=none;" vertex="1" parent="hiGreWTvh3-nO5kUzk7D-27">
          <mxGeometry y="390" width="249" height="30" as="geometry" />
        </mxCell>
        <mxCell id="hiGreWTvh3-nO5kUzk7D-112" value="patchEditarSenhaUsuario()" style="text;align=center;verticalAlign=middle;spacingLeft=4;spacingRight=4;overflow=hidden;points=[[0,0.5],[1,0.5]];portConstraint=eastwest;rotatable=0;whiteSpace=wrap;textDirection=ltr;labelBorderColor=none;" vertex="1" parent="hiGreWTvh3-nO5kUzk7D-27">
          <mxGeometry y="420" width="249" height="30" as="geometry" />
        </mxCell>
        <mxCell id="hiGreWTvh3-nO5kUzk7D-113" value="patchEditarTipoUsuario()" style="text;align=center;verticalAlign=middle;spacingLeft=4;spacingRight=4;overflow=hidden;points=[[0,0.5],[1,0.5]];portConstraint=eastwest;rotatable=0;whiteSpace=wrap;textDirection=ltr;labelBorderColor=none;" vertex="1" parent="hiGreWTvh3-nO5kUzk7D-27">
          <mxGeometry y="450" width="249" height="30" as="geometry" />
        </mxCell>
        <mxCell id="hiGreWTvh3-nO5kUzk7D-114" value="deleteExcluirUsuario()" style="text;align=center;verticalAlign=middle;spacingLeft=4;spacingRight=4;overflow=hidden;points=[[0,0.5],[1,0.5]];portConstraint=eastwest;rotatable=0;whiteSpace=wrap;textDirection=ltr;labelBorderColor=none;" vertex="1" parent="hiGreWTvh3-nO5kUzk7D-27">
          <mxGeometry y="480" width="249" height="30" as="geometry" />
        </mxCell>
        <mxCell id="hiGreWTvh3-nO5kUzk7D-115" value="login()" style="text;align=center;verticalAlign=middle;spacingLeft=4;spacingRight=4;overflow=hidden;points=[[0,0.5],[1,0.5]];portConstraint=eastwest;rotatable=0;whiteSpace=wrap;textDirection=ltr;labelBorderColor=none;" vertex="1" parent="hiGreWTvh3-nO5kUzk7D-27">
          <mxGeometry y="510" width="249" height="30" as="geometry" />
        </mxCell>
        <mxCell id="hiGreWTvh3-nO5kUzk7D-116" value="logoff()" style="text;align=center;verticalAlign=middle;spacingLeft=4;spacingRight=4;overflow=hidden;points=[[0,0.5],[1,0.5]];portConstraint=eastwest;rotatable=0;whiteSpace=wrap;textDirection=ltr;labelBorderColor=none;" vertex="1" parent="hiGreWTvh3-nO5kUzk7D-27">
          <mxGeometry y="540" width="249" height="30" as="geometry" />
        </mxCell>
        <mxCell id="hiGreWTvh3-nO5kUzk7D-36" value="" style="line;strokeWidth=1;rotatable=0;dashed=0;labelPosition=right;align=left;verticalAlign=middle;spacingTop=0;spacingLeft=6;points=[];portConstraint=eastwest;" vertex="1" parent="1">
          <mxGeometry x="275" y="734" width="60" height="20" as="geometry" />
        </mxCell>
        <mxCell id="hiGreWTvh3-nO5kUzk7D-38" value="" style="endArrow=diamondThin;endFill=0;endSize=24;html=1;rounded=0;fontSize=12;curved=1;" edge="1" parent="1">
          <mxGeometry width="160" relative="1" as="geometry">
            <mxPoint x="525" y="744.44" as="sourcePoint" />
            <mxPoint x="685" y="744.44" as="targetPoint" />
          </mxGeometry>
        </mxCell>
        <mxCell id="hiGreWTvh3-nO5kUzk7D-39" value="" style="endArrow=diamondThin;endFill=1;endSize=24;html=1;rounded=0;fontSize=12;curved=0;" edge="1" parent="1">
          <mxGeometry width="160" relative="1" as="geometry">
            <mxPoint x="747" y="750" as="sourcePoint" />
            <mxPoint x="1000" y="754.47" as="targetPoint" />
          </mxGeometry>
        </mxCell>
        <mxCell id="hiGreWTvh3-nO5kUzk7D-118" value="" style="shape=stencil(fZbdcgIhDIWfZm8zQAg/17Z9j85U606tdqz9e/tmZ0c0uJ47xP0I5JwEBl59bp8/1kNwn6fj4W39M76ctgM/DCGM++36OJ50NPDjwKvN4bh+PR6+9i/z74/n6ctp9H74nlb4nbmSKZeJCu5vngmZ6jzzNAO7cX8FVKEsBuBKrgKg9oAE8gkCbLeUhEoEQKSUDZDLeWYRKIl8MEDRmHwfyBrBG6Amyu4+kDxxMoB3jhwgYu7TVAsVkFcWCs4CTBEoF4RctKeOxHIf8IXYpikHikAIf+MNUW94AGSSaoAoFIE3AlOyeWU+p2E5S9yfQZcQILVuQOwZdJNoS9Ls3wA5u2XZTIHECqeJ9kDpSaauRiNVcAY1QhdBzeLBli5WazpkSsBLV25uRaqWRyFawTQzRRIQYirJzq5atkBqLfouwqUxLBepthWb10vrWZY6UOAeyKCCtDV625mm9gmUC4Wc3VLJMMIE1BsA2FW9JraVlQB7n3c9oMKhCLEvIM1zBPZ25/umNQ1tVEC2G+fFCC8g398O2hNQuQlVu752DBfA+q0ptnqO5JFmeuIuo9DY7KjY71UxdJV4EntifPWorW++R/dC4t7V3DlIB5cHx2bc7eb3yvX//QNFp+bHDT/+Aw==);lineShape=1;strokeColor=default;" vertex="1" parent="1">
          <mxGeometry x="731.9764125836587" y="399.34668150168795" width="7.188522726331449" height="7.17728648670415" as="geometry" />
        </mxCell>
        <mxCell id="hiGreWTvh3-nO5kUzk7D-119" value="LogTransacao" style="swimlane;fontStyle=0;childLayout=stackLayout;horizontal=1;startSize=30;horizontalStack=0;resizeParent=1;resizeParentMax=0;resizeLast=0;collapsible=1;marginBottom=0;whiteSpace=wrap;html=1;fillColor=#d5e8d4;strokeColor=#82b366;" vertex="1" parent="1">
          <mxGeometry x="433" y="805" width="198" height="270" as="geometry" />
        </mxCell>
        <mxCell id="hiGreWTvh3-nO5kUzk7D-120" value="Atributos" style="text;strokeColor=#6c8ebf;fillColor=#dae8fc;align=center;verticalAlign=middle;spacingLeft=4;spacingRight=4;overflow=hidden;points=[[0,0.5],[1,0.5]];portConstraint=eastwest;rotatable=0;whiteSpace=wrap;labelBorderColor=none;textDirection=ltr;" vertex="1" parent="hiGreWTvh3-nO5kUzk7D-119">
          <mxGeometry y="30" width="198" height="30" as="geometry" />
        </mxCell>
        <mxCell id="hiGreWTvh3-nO5kUzk7D-121" value="ID -Â  Int? (auto increment)" style="text;align=center;verticalAlign=middle;spacingLeft=4;spacingRight=4;overflow=hidden;points=[[0,0.5],[1,0.5]];portConstraint=eastwest;rotatable=0;whiteSpace=wrap;textDirection=ltr;labelBorderColor=none;" vertex="1" parent="hiGreWTvh3-nO5kUzk7D-119">
          <mxGeometry y="60" width="198" height="30" as="geometry" />
        </mxCell>
        <mxCell id="hiGreWTvh3-nO5kUzk7D-122" value="valorTotal - Double?" style="text;align=center;verticalAlign=middle;spacingLeft=4;spacingRight=4;overflow=hidden;points=[[0,0.5],[1,0.5]];portConstraint=eastwest;rotatable=0;whiteSpace=wrap;textDirection=ltr;labelBorderColor=none;" vertex="1" parent="hiGreWTvh3-nO5kUzk7D-119">
          <mxGeometry y="90" width="198" height="30" as="geometry" />
        </mxCell>
        <mxCell id="hiGreWTvh3-nO5kUzk7D-123" value="tipoEdicao - logTransacaoEnum?" style="text;align=center;verticalAlign=middle;spacingLeft=4;spacingRight=4;overflow=hidden;points=[[0,0.5],[1,0.5]];portConstraint=eastwest;rotatable=0;whiteSpace=wrap;textDirection=ltr;labelBorderColor=none;" vertex="1" parent="hiGreWTvh3-nO5kUzk7D-119">
          <mxGeometry y="120" width="198" height="30" as="geometry" />
        </mxCell>
        <mxCell id="hiGreWTvh3-nO5kUzk7D-124" value="tipoOperacao - tipoOperacaoEnum" style="text;align=center;verticalAlign=middle;spacingLeft=4;spacingRight=4;overflow=hidden;points=[[0,0.5],[1,0.5]];portConstraint=eastwest;rotatable=0;whiteSpace=wrap;textDirection=ltr;labelBorderColor=none;" vertex="1" parent="hiGreWTvh3-nO5kUzk7D-119">
          <mxGeometry y="150" width="198" height="30" as="geometry" />
        </mxCell>
        <mxCell id="hiGreWTvh3-nO5kUzk7D-125" value="dataLog - LocalDateTime" style="text;align=center;verticalAlign=middle;spacingLeft=4;spacingRight=4;overflow=hidden;points=[[0,0.5],[1,0.5]];portConstraint=eastwest;rotatable=0;whiteSpace=wrap;textDirection=ltr;labelBorderColor=none;" vertex="1" parent="hiGreWTvh3-nO5kUzk7D-119">
          <mxGeometry y="180" width="198" height="30" as="geometry" />
        </mxCell>
        <mxCell id="hiGreWTvh3-nO5kUzk7D-126" value="fkTransacao - Transacao?" style="text;align=center;verticalAlign=middle;spacingLeft=4;spacingRight=4;overflow=hidden;points=[[0,0.5],[1,0.5]];portConstraint=eastwest;rotatable=0;whiteSpace=wrap;textDirection=ltr;labelBorderColor=none;" vertex="1" parent="hiGreWTvh3-nO5kUzk7D-119">
          <mxGeometry y="210" width="198" height="30" as="geometry" />
        </mxCell>
        <mxCell id="hiGreWTvh3-nO5kUzk7D-127" value="fkTransacaoProduto - Produto?" style="text;align=center;verticalAlign=middle;spacingLeft=4;spacingRight=4;overflow=hidden;points=[[0,0.5],[1,0.5]];portConstraint=eastwest;rotatable=0;whiteSpace=wrap;textDirection=ltr;labelBorderColor=none;" vertex="1" parent="hiGreWTvh3-nO5kUzk7D-119">
          <mxGeometry y="240" width="198" height="30" as="geometry" />
        </mxCell>
        <mxCell id="hiGreWTvh3-nO5kUzk7D-133" value="LogTransacaoController" style="swimlane;fontStyle=0;childLayout=stackLayout;horizontal=1;startSize=30;horizontalStack=0;resizeParent=1;resizeParentMax=0;resizeLast=0;collapsible=1;marginBottom=0;whiteSpace=wrap;html=1;fillColor=#d5e8d4;strokeColor=#82b366;" vertex="1" parent="1">
          <mxGeometry x="685" y="805" width="198" height="180" as="geometry" />
        </mxCell>
        <mxCell id="hiGreWTvh3-nO5kUzk7D-142" value="Metodos" style="text;strokeColor=#d6b656;fillColor=#fff2cc;align=center;verticalAlign=middle;spacingLeft=4;spacingRight=4;overflow=hidden;points=[[0,0.5],[1,0.5]];portConstraint=eastwest;rotatable=0;whiteSpace=wrap;textDirection=ltr;labelBorderColor=none;" vertex="1" parent="hiGreWTvh3-nO5kUzk7D-133">
          <mxGeometry y="30" width="198" height="30" as="geometry" />
        </mxCell>
        <mxCell id="hiGreWTvh3-nO5kUzk7D-143" value="listar()" style="text;align=center;verticalAlign=middle;spacingLeft=4;spacingRight=4;overflow=hidden;points=[[0,0.5],[1,0.5]];portConstraint=eastwest;rotatable=0;whiteSpace=wrap;textDirection=ltr;labelBorderColor=none;" vertex="1" parent="hiGreWTvh3-nO5kUzk7D-133">
          <mxGeometry y="60" width="198" height="30" as="geometry" />
        </mxCell>
        <mxCell id="hiGreWTvh3-nO5kUzk7D-144" value="buscarPorId()" style="text;align=center;verticalAlign=middle;spacingLeft=4;spacingRight=4;overflow=hidden;points=[[0,0.5],[1,0.5]];portConstraint=eastwest;rotatable=0;whiteSpace=wrap;textDirection=ltr;labelBorderColor=none;" vertex="1" parent="hiGreWTvh3-nO5kUzk7D-133">
          <mxGeometry y="90" width="198" height="30" as="geometry" />
        </mxCell>
        <mxCell id="hiGreWTvh3-nO5kUzk7D-145" value="atualizar()" style="text;align=center;verticalAlign=middle;spacingLeft=4;spacingRight=4;overflow=hidden;points=[[0,0.5],[1,0.5]];portConstraint=eastwest;rotatable=0;whiteSpace=wrap;textDirection=ltr;labelBorderColor=none;" vertex="1" parent="hiGreWTvh3-nO5kUzk7D-133">
          <mxGeometry y="120" width="198" height="30" as="geometry" />
        </mxCell>
        <mxCell id="hiGreWTvh3-nO5kUzk7D-146" value="deletar()" style="text;align=center;verticalAlign=middle;spacingLeft=4;spacingRight=4;overflow=hidden;points=[[0,0.5],[1,0.5]];portConstraint=eastwest;rotatable=0;whiteSpace=wrap;textDirection=ltr;labelBorderColor=none;" vertex="1" parent="hiGreWTvh3-nO5kUzk7D-133">
          <mxGeometry y="150" width="198" height="30" as="geometry" />
        </mxCell>
        <mxCell id="hiGreWTvh3-nO5kUzk7D-147" value="LogTransacaoService" style="swimlane;fontStyle=0;childLayout=stackLayout;horizontal=1;startSize=30;horizontalStack=0;resizeParent=1;resizeParentMax=0;resizeLast=0;collapsible=1;marginBottom=0;whiteSpace=wrap;html=1;fillColor=#d5e8d4;strokeColor=#82b366;" vertex="1" parent="1">
          <mxGeometry x="928" y="805" width="198" height="90" as="geometry" />
        </mxCell>
        <mxCell id="hiGreWTvh3-nO5kUzk7D-148" value="Metodos" style="text;strokeColor=#d6b656;fillColor=#fff2cc;align=center;verticalAlign=middle;spacingLeft=4;spacingRight=4;overflow=hidden;points=[[0,0.5],[1,0.5]];portConstraint=eastwest;rotatable=0;whiteSpace=wrap;textDirection=ltr;labelBorderColor=none;" vertex="1" parent="hiGreWTvh3-nO5kUzk7D-147">
          <mxGeometry y="30" width="198" height="30" as="geometry" />
        </mxCell>
        <mxCell id="hiGreWTvh3-nO5kUzk7D-149" value="service()" style="text;align=center;verticalAlign=middle;spacingLeft=4;spacingRight=4;overflow=hidden;points=[[0,0.5],[1,0.5]];portConstraint=eastwest;rotatable=0;whiteSpace=wrap;textDirection=ltr;labelBorderColor=none;" vertex="1" parent="hiGreWTvh3-nO5kUzk7D-147">
          <mxGeometry y="60" width="198" height="30" as="geometry" />
        </mxCell>
        <mxCell id="hiGreWTvh3-nO5kUzk7D-153" value="EstoqueAtualController" style="swimlane;fontStyle=0;childLayout=stackLayout;horizontal=1;startSize=30;horizontalStack=0;resizeParent=1;resizeParentMax=0;resizeLast=0;collapsible=1;marginBottom=0;whiteSpace=wrap;html=1;fillColor=#d5e8d4;strokeColor=#82b366;" vertex="1" parent="1">
          <mxGeometry x="-5" y="808" width="165" height="120" as="geometry" />
        </mxCell>
        <mxCell id="hiGreWTvh3-nO5kUzk7D-154" value="Metodos" style="text;strokeColor=#d6b656;fillColor=#fff2cc;align=center;verticalAlign=middle;spacingLeft=4;spacingRight=4;overflow=hidden;points=[[0,0.5],[1,0.5]];portConstraint=eastwest;rotatable=0;whiteSpace=wrap;textDirection=ltr;labelBorderColor=none;" vertex="1" parent="hiGreWTvh3-nO5kUzk7D-153">
          <mxGeometry y="30" width="165" height="30" as="geometry" />
        </mxCell>
        <mxCell id="hiGreWTvh3-nO5kUzk7D-155" value="ListarEstoqueAtual()" style="text;align=center;verticalAlign=middle;spacingLeft=4;spacingRight=4;overflow=hidden;points=[[0,0.5],[1,0.5]];portConstraint=eastwest;rotatable=0;whiteSpace=wrap;textDirection=ltr;labelBorderColor=none;" vertex="1" parent="hiGreWTvh3-nO5kUzk7D-153">
          <mxGeometry y="60" width="165" height="30" as="geometry" />
        </mxCell>
        <mxCell id="hiGreWTvh3-nO5kUzk7D-156" value="BuscarProdutoPorNome()" style="text;align=center;verticalAlign=middle;spacingLeft=4;spacingRight=4;overflow=hidden;points=[[0,0.5],[1,0.5]];portConstraint=eastwest;rotatable=0;whiteSpace=wrap;textDirection=ltr;labelBorderColor=none;" vertex="1" parent="hiGreWTvh3-nO5kUzk7D-153">
          <mxGeometry y="90" width="165" height="30" as="geometry" />
        </mxCell>
        <mxCell id="hiGreWTvh3-nO5kUzk7D-157" value="EstoqueAtualService" style="swimlane;fontStyle=0;childLayout=stackLayout;horizontal=1;startSize=30;horizontalStack=0;resizeParent=1;resizeParentMax=0;resizeLast=0;collapsible=1;marginBottom=0;whiteSpace=wrap;html=1;fillColor=#d5e8d4;strokeColor=#82b366;" vertex="1" parent="1">
          <mxGeometry x="218" y="808" width="165" height="120" as="geometry" />
        </mxCell>
        <mxCell id="hiGreWTvh3-nO5kUzk7D-158" value="Metodos" style="text;strokeColor=#d6b656;fillColor=#fff2cc;align=center;verticalAlign=middle;spacingLeft=4;spacingRight=4;overflow=hidden;points=[[0,0.5],[1,0.5]];portConstraint=eastwest;rotatable=0;whiteSpace=wrap;textDirection=ltr;labelBorderColor=none;" vertex="1" parent="hiGreWTvh3-nO5kUzk7D-157">
          <mxGeometry y="30" width="165" height="30" as="geometry" />
        </mxCell>
        <mxCell id="hiGreWTvh3-nO5kUzk7D-159" value="ListarEstoqueAtual()" style="text;align=center;verticalAlign=middle;spacingLeft=4;spacingRight=4;overflow=hidden;points=[[0,0.5],[1,0.5]];portConstraint=eastwest;rotatable=0;whiteSpace=wrap;textDirection=ltr;labelBorderColor=none;" vertex="1" parent="hiGreWTvh3-nO5kUzk7D-157">
          <mxGeometry y="60" width="165" height="30" as="geometry" />
        </mxCell>
        <mxCell id="hiGreWTvh3-nO5kUzk7D-160" value="BuscarProdutoPorNome()" style="text;align=center;verticalAlign=middle;spacingLeft=4;spacingRight=4;overflow=hidden;points=[[0,0.5],[1,0.5]];portConstraint=eastwest;rotatable=0;whiteSpace=wrap;textDirection=ltr;labelBorderColor=none;" vertex="1" parent="hiGreWTvh3-nO5kUzk7D-157">
          <mxGeometry y="90" width="165" height="30" as="geometry" />
        </mxCell>
        <mxCell id="hiGreWTvh3-nO5kUzk7D-164" value="Parceiro Comercial" style="swimlane;fontStyle=0;childLayout=stackLayout;horizontal=1;startSize=30;horizontalStack=0;resizeParent=1;resizeParentMax=0;resizeLast=0;collapsible=1;marginBottom=0;whiteSpace=wrap;html=1;fillColor=#d5e8d4;strokeColor=#82b366;" vertex="1" parent="1">
          <mxGeometry x="1158" y="807" width="223" height="120" as="geometry" />
        </mxCell>
        <mxCell id="hiGreWTvh3-nO5kUzk7D-165" value="Atributos" style="text;strokeColor=#6c8ebf;fillColor=#dae8fc;align=center;verticalAlign=middle;spacingLeft=4;spacingRight=4;overflow=hidden;points=[[0,0.5],[1,0.5]];portConstraint=eastwest;rotatable=0;whiteSpace=wrap;textDirection=ltr;labelBorderColor=none;" vertex="1" parent="hiGreWTvh3-nO5kUzk7D-164">
          <mxGeometry y="30" width="223" height="30" as="geometry" />
        </mxCell>
        <mxCell id="hiGreWTvh3-nO5kUzk7D-166" value="tipoComercial -Â  tipoComercialEnum?" style="text;align=center;verticalAlign=middle;spacingLeft=4;spacingRight=4;overflow=hidden;points=[[0,0.5],[1,0.5]];portConstraint=eastwest;rotatable=0;whiteSpace=wrap;textDirection=ltr;labelBorderColor=none;" vertex="1" parent="hiGreWTvh3-nO5kUzk7D-164">
          <mxGeometry y="60" width="223" height="30" as="geometry" />
        </mxCell>
        <mxCell id="hiGreWTvh3-nO5kUzk7D-167" value="papelComercial - papelComecialEnum?" style="text;align=center;verticalAlign=middle;spacingLeft=4;spacingRight=4;overflow=hidden;points=[[0,0.5],[1,0.5]];portConstraint=eastwest;rotatable=0;whiteSpace=wrap;textDirection=ltr;labelBorderColor=none;" vertex="1" parent="hiGreWTvh3-nO5kUzk7D-164">
          <mxGeometry y="90" width="223" height="30" as="geometry" />
        </mxCell>
        <mxCell id="hiGreWTvh3-nO5kUzk7D-173" value="ParceiroComercialController" style="swimlane;fontStyle=0;childLayout=stackLayout;horizontal=1;startSize=30;horizontalStack=0;resizeParent=1;resizeParentMax=0;resizeLast=0;collapsible=1;marginBottom=0;whiteSpace=wrap;html=1;fillColor=#d5e8d4;strokeColor=#82b366;" vertex="1" parent="1">
          <mxGeometry x="1419" y="807.5" width="223" height="180" as="geometry" />
        </mxCell>
        <mxCell id="hiGreWTvh3-nO5kUzk7D-177" value="Metodos" style="text;strokeColor=#d6b656;fillColor=#fff2cc;align=center;verticalAlign=middle;spacingLeft=4;spacingRight=4;overflow=hidden;points=[[0,0.5],[1,0.5]];portConstraint=eastwest;rotatable=0;whiteSpace=wrap;textDirection=ltr;labelBorderColor=none;" vertex="1" parent="hiGreWTvh3-nO5kUzk7D-173">
          <mxGeometry y="30" width="223" height="30" as="geometry" />
        </mxCell>
        <mxCell id="hiGreWTvh3-nO5kUzk7D-178" value="getListaParceiroComercial()" style="text;align=center;verticalAlign=middle;spacingLeft=4;spacingRight=4;overflow=hidden;points=[[0,0.5],[1,0.5]];portConstraint=eastwest;rotatable=0;whiteSpace=wrap;textDirection=ltr;labelBorderColor=none;" vertex="1" parent="hiGreWTvh3-nO5kUzk7D-173">
          <mxGeometry y="60" width="223" height="30" as="geometry" />
        </mxCell>
        <mxCell id="hiGreWTvh3-nO5kUzk7D-179" value="post()" style="text;align=center;verticalAlign=middle;spacingLeft=4;spacingRight=4;overflow=hidden;points=[[0,0.5],[1,0.5]];portConstraint=eastwest;rotatable=0;whiteSpace=wrap;textDirection=ltr;labelBorderColor=none;" vertex="1" parent="hiGreWTvh3-nO5kUzk7D-173">
          <mxGeometry y="90" width="223" height="30" as="geometry" />
        </mxCell>
        <mxCell id="hiGreWTvh3-nO5kUzk7D-180" value="delete()" style="text;align=center;verticalAlign=middle;spacingLeft=4;spacingRight=4;overflow=hidden;points=[[0,0.5],[1,0.5]];portConstraint=eastwest;rotatable=0;whiteSpace=wrap;textDirection=ltr;labelBorderColor=none;" vertex="1" parent="hiGreWTvh3-nO5kUzk7D-173">
          <mxGeometry y="120" width="223" height="30" as="geometry" />
        </mxCell>
        <mxCell id="hiGreWTvh3-nO5kUzk7D-181" value="atualizarParceiro()" style="text;align=center;verticalAlign=middle;spacingLeft=4;spacingRight=4;overflow=hidden;points=[[0,0.5],[1,0.5]];portConstraint=eastwest;rotatable=0;whiteSpace=wrap;textDirection=ltr;labelBorderColor=none;" vertex="1" parent="hiGreWTvh3-nO5kUzk7D-173">
          <mxGeometry y="150" width="223" height="30" as="geometry" />
        </mxCell>
        <mxCell id="hiGreWTvh3-nO5kUzk7D-182" value="ParceiroComercialService" style="swimlane;fontStyle=0;childLayout=stackLayout;horizontal=1;startSize=30;horizontalStack=0;resizeParent=1;resizeParentMax=0;resizeLast=0;collapsible=1;marginBottom=0;whiteSpace=wrap;html=1;fillColor=#d5e8d4;strokeColor=#82b366;" vertex="1" parent="1">
          <mxGeometry x="1681" y="1046" width="223" height="180" as="geometry" />
        </mxCell>
        <mxCell id="hiGreWTvh3-nO5kUzk7D-183" value="Metodos" style="text;strokeColor=#d6b656;fillColor=#fff2cc;align=center;verticalAlign=middle;spacingLeft=4;spacingRight=4;overflow=hidden;points=[[0,0.5],[1,0.5]];portConstraint=eastwest;rotatable=0;whiteSpace=wrap;textDirection=ltr;labelBorderColor=none;" vertex="1" parent="hiGreWTvh3-nO5kUzk7D-182">
          <mxGeometry y="30" width="223" height="30" as="geometry" />
        </mxCell>
        <mxCell id="hiGreWTvh3-nO5kUzk7D-184" value="listarTodosParceiros()" style="text;align=center;verticalAlign=middle;spacingLeft=4;spacingRight=4;overflow=hidden;points=[[0,0.5],[1,0.5]];portConstraint=eastwest;rotatable=0;whiteSpace=wrap;textDirection=ltr;labelBorderColor=none;" vertex="1" parent="hiGreWTvh3-nO5kUzk7D-182">
          <mxGeometry y="60" width="223" height="30" as="geometry" />
        </mxCell>
        <mxCell id="hiGreWTvh3-nO5kUzk7D-185" value="criarParceiro()" style="text;align=center;verticalAlign=middle;spacingLeft=4;spacingRight=4;overflow=hidden;points=[[0,0.5],[1,0.5]];portConstraint=eastwest;rotatable=0;whiteSpace=wrap;textDirection=ltr;labelBorderColor=none;" vertex="1" parent="hiGreWTvh3-nO5kUzk7D-182">
          <mxGeometry y="90" width="223" height="30" as="geometry" />
        </mxCell>
        <mxCell id="hiGreWTvh3-nO5kUzk7D-186" value="deletarParceiro()Â Â Â Â " style="text;align=center;verticalAlign=middle;spacingLeft=4;spacingRight=4;overflow=hidden;points=[[0,0.5],[1,0.5]];portConstraint=eastwest;rotatable=0;whiteSpace=wrap;textDirection=ltr;labelBorderColor=none;" vertex="1" parent="hiGreWTvh3-nO5kUzk7D-182">
          <mxGeometry y="120" width="223" height="30" as="geometry" />
        </mxCell>
        <mxCell id="hiGreWTvh3-nO5kUzk7D-187" value="atualizarParceiro()" style="text;align=center;verticalAlign=middle;spacingLeft=4;spacingRight=4;overflow=hidden;points=[[0,0.5],[1,0.5]];portConstraint=eastwest;rotatable=0;whiteSpace=wrap;textDirection=ltr;labelBorderColor=none;" vertex="1" parent="hiGreWTvh3-nO5kUzk7D-182">
          <mxGeometry y="150" width="223" height="30" as="geometry" />
        </mxCell>
        <mxCell id="hiGreWTvh3-nO5kUzk7D-189" value="Produto" style="swimlane;fontStyle=0;childLayout=stackLayout;horizontal=1;startSize=30;horizontalStack=0;resizeParent=1;resizeParentMax=0;resizeLast=0;collapsible=1;marginBottom=0;whiteSpace=wrap;html=1;fillColor=#d5e8d4;strokeColor=#82b366;" vertex="1" parent="1">
          <mxGeometry x="1996" y="805" width="205" height="390" as="geometry" />
        </mxCell>
        <mxCell id="hiGreWTvh3-nO5kUzk7D-190" value="Atributos" style="text;strokeColor=#6c8ebf;fillColor=#dae8fc;align=center;verticalAlign=middle;spacingLeft=4;spacingRight=4;overflow=hidden;points=[[0,0.5],[1,0.5]];portConstraint=eastwest;rotatable=0;whiteSpace=wrap;textDirection=ltr;labelBorderColor=none;" vertex="1" parent="hiGreWTvh3-nO5kUzk7D-189">
          <mxGeometry y="30" width="205" height="30" as="geometry" />
        </mxCell>
        <mxCell id="hiGreWTvh3-nO5kUzk7D-191" value="ID - Int? (auto increment)" style="text;align=center;verticalAlign=middle;spacingLeft=4;spacingRight=4;overflow=hidden;points=[[0,0.5],[1,0.5]];portConstraint=eastwest;rotatable=0;whiteSpace=wrap;textDirection=ltr;labelBorderColor=none;" vertex="1" parent="hiGreWTvh3-nO5kUzk7D-189">
          <mxGeometry y="60" width="205" height="30" as="geometry" />
        </mxCell>
        <mxCell id="hiGreWTvh3-nO5kUzk7D-192" value="nome - string?" style="text;align=center;verticalAlign=middle;spacingLeft=4;spacingRight=4;overflow=hidden;points=[[0,0.5],[1,0.5]];portConstraint=eastwest;rotatable=0;whiteSpace=wrap;textDirection=ltr;labelBorderColor=none;" vertex="1" parent="hiGreWTvh3-nO5kUzk7D-189">
          <mxGeometry y="90" width="205" height="30" as="geometry" />
        </mxCell>
        <mxCell id="hiGreWTvh3-nO5kUzk7D-193" value="prioridade - ProdutoPrioridade?" style="text;align=center;verticalAlign=middle;spacingLeft=4;spacingRight=4;overflow=hidden;points=[[0,0.5],[1,0.5]];portConstraint=eastwest;rotatable=0;whiteSpace=wrap;textDirection=ltr;labelBorderColor=none;" vertex="1" parent="hiGreWTvh3-nO5kUzk7D-189">
          <mxGeometry y="120" width="205" height="30" as="geometry" />
        </mxCell>
        <mxCell id="hiGreWTvh3-nO5kUzk7D-194" value="nivelSaude - ProdutoNivelSaude?" style="text;align=center;verticalAlign=middle;spacingLeft=4;spacingRight=4;overflow=hidden;points=[[0,0.5],[1,0.5]];portConstraint=eastwest;rotatable=0;whiteSpace=wrap;textDirection=ltr;labelBorderColor=none;" vertex="1" parent="hiGreWTvh3-nO5kUzk7D-189">
          <mxGeometry y="150" width="205" height="30" as="geometry" />
        </mxCell>
        <mxCell id="hiGreWTvh3-nO5kUzk7D-195" value="meta - Double?" style="text;align=center;verticalAlign=middle;spacingLeft=4;spacingRight=4;overflow=hidden;points=[[0,0.5],[1,0.5]];portConstraint=eastwest;rotatable=0;whiteSpace=wrap;textDirection=ltr;labelBorderColor=none;" vertex="1" parent="hiGreWTvh3-nO5kUzk7D-189">
          <mxGeometry y="180" width="205" height="30" as="geometry" />
        </mxCell>
        <mxCell id="hiGreWTvh3-nO5kUzk7D-196" value="precoMaximo - Double?" style="text;align=center;verticalAlign=middle;spacingLeft=4;spacingRight=4;overflow=hidden;points=[[0,0.5],[1,0.5]];portConstraint=eastwest;rotatable=0;whiteSpace=wrap;textDirection=ltr;labelBorderColor=none;" vertex="1" parent="hiGreWTvh3-nO5kUzk7D-189">
          <mxGeometry y="210" width="205" height="30" as="geometry" />
        </mxCell>
        <mxCell id="hiGreWTvh3-nO5kUzk7D-197" value="precoMinimo - Double?" style="text;align=center;verticalAlign=middle;spacingLeft=4;spacingRight=4;overflow=hidden;points=[[0,0.5],[1,0.5]];portConstraint=eastwest;rotatable=0;whiteSpace=wrap;textDirection=ltr;labelBorderColor=none;" vertex="1" parent="hiGreWTvh3-nO5kUzk7D-189">
          <mxGeometry y="240" width="205" height="30" as="geometry" />
        </mxCell>
        <mxCell id="hiGreWTvh3-nO5kUzk7D-198" value="precoMedio - Double?" style="text;align=center;verticalAlign=middle;spacingLeft=4;spacingRight=4;overflow=hidden;points=[[0,0.5],[1,0.5]];portConstraint=eastwest;rotatable=0;whiteSpace=wrap;textDirection=ltr;labelBorderColor=none;" vertex="1" parent="hiGreWTvh3-nO5kUzk7D-189">
          <mxGeometry y="270" width="205" height="30" as="geometry" />
        </mxCell>
        <mxCell id="hiGreWTvh3-nO5kUzk7D-199" value="tipo - TipoProduto?" style="text;align=center;verticalAlign=middle;spacingLeft=4;spacingRight=4;overflow=hidden;points=[[0,0.5],[1,0.5]];portConstraint=eastwest;rotatable=0;whiteSpace=wrap;textDirection=ltr;labelBorderColor=none;" vertex="1" parent="hiGreWTvh3-nO5kUzk7D-189">
          <mxGeometry y="300" width="205" height="30" as="geometry" />
        </mxCell>
        <mxCell id="hiGreWTvh3-nO5kUzk7D-200" value="fkUsuario - Usuario?" style="text;align=center;verticalAlign=middle;spacingLeft=4;spacingRight=4;overflow=hidden;points=[[0,0.5],[1,0.5]];portConstraint=eastwest;rotatable=0;whiteSpace=wrap;textDirection=ltr;labelBorderColor=none;" vertex="1" parent="hiGreWTvh3-nO5kUzk7D-189">
          <mxGeometry y="330" width="205" height="30" as="geometry" />
        </mxCell>
        <mxCell id="hiGreWTvh3-nO5kUzk7D-201" value="dataCadastro - LocalDateTime" style="text;align=center;verticalAlign=middle;spacingLeft=4;spacingRight=4;overflow=hidden;points=[[0,0.5],[1,0.5]];portConstraint=eastwest;rotatable=0;whiteSpace=wrap;textDirection=ltr;labelBorderColor=none;" vertex="1" parent="hiGreWTvh3-nO5kUzk7D-189">
          <mxGeometry y="360" width="205" height="30" as="geometry" />
        </mxCell>
        <mxCell id="hiGreWTvh3-nO5kUzk7D-211" value="ProdutoController" style="swimlane;fontStyle=0;childLayout=stackLayout;horizontal=1;startSize=30;horizontalStack=0;resizeParent=1;resizeParentMax=0;resizeLast=0;collapsible=1;marginBottom=0;whiteSpace=wrap;html=1;fillColor=#d5e8d4;strokeColor=#82b366;" vertex="1" parent="1">
          <mxGeometry x="2255" y="805" width="205" height="300" as="geometry" />
        </mxCell>
        <mxCell id="hiGreWTvh3-nO5kUzk7D-224" value="Metodos" style="text;strokeColor=#d6b656;fillColor=#fff2cc;align=center;verticalAlign=middle;spacingLeft=4;spacingRight=4;overflow=hidden;points=[[0,0.5],[1,0.5]];portConstraint=eastwest;rotatable=0;whiteSpace=wrap;textDirection=ltr;labelBorderColor=none;" vertex="1" parent="hiGreWTvh3-nO5kUzk7D-211">
          <mxGeometry y="30" width="205" height="30" as="geometry" />
        </mxCell>
        <mxCell id="hiGreWTvh3-nO5kUzk7D-225" value="listarTodosProdutos()" style="text;align=center;verticalAlign=middle;spacingLeft=4;spacingRight=4;overflow=hidden;points=[[0,0.5],[1,0.5]];portConstraint=eastwest;rotatable=0;whiteSpace=wrap;textDirection=ltr;labelBorderColor=none;" vertex="1" parent="hiGreWTvh3-nO5kUzk7D-211">
          <mxGeometry y="60" width="205" height="30" as="geometry" />
        </mxCell>
        <mxCell id="hiGreWTvh3-nO5kUzk7D-226" value="getProdutoID()" style="text;align=center;verticalAlign=middle;spacingLeft=4;spacingRight=4;overflow=hidden;points=[[0,0.5],[1,0.5]];portConstraint=eastwest;rotatable=0;whiteSpace=wrap;textDirection=ltr;labelBorderColor=none;" vertex="1" parent="hiGreWTvh3-nO5kUzk7D-211">
          <mxGeometry y="90" width="205" height="30" as="geometry" />
        </mxCell>
        <mxCell id="hiGreWTvh3-nO5kUzk7D-227" value="getProdutoTipo()" style="text;align=center;verticalAlign=middle;spacingLeft=4;spacingRight=4;overflow=hidden;points=[[0,0.5],[1,0.5]];portConstraint=eastwest;rotatable=0;whiteSpace=wrap;textDirection=ltr;labelBorderColor=none;" vertex="1" parent="hiGreWTvh3-nO5kUzk7D-211">
          <mxGeometry y="120" width="205" height="30" as="geometry" />
        </mxCell>
        <mxCell id="hiGreWTvh3-nO5kUzk7D-228" value="adicionarImagemProduto()" style="text;align=center;verticalAlign=middle;spacingLeft=4;spacingRight=4;overflow=hidden;points=[[0,0.5],[1,0.5]];portConstraint=eastwest;rotatable=0;whiteSpace=wrap;textDirection=ltr;labelBorderColor=none;" vertex="1" parent="hiGreWTvh3-nO5kUzk7D-211">
          <mxGeometry y="150" width="205" height="30" as="geometry" />
        </mxCell>
        <mxCell id="hiGreWTvh3-nO5kUzk7D-229" value="getFoto()" style="text;align=center;verticalAlign=middle;spacingLeft=4;spacingRight=4;overflow=hidden;points=[[0,0.5],[1,0.5]];portConstraint=eastwest;rotatable=0;whiteSpace=wrap;textDirection=ltr;labelBorderColor=none;" vertex="1" parent="hiGreWTvh3-nO5kUzk7D-211">
          <mxGeometry y="180" width="205" height="30" as="geometry" />
        </mxCell>
        <mxCell id="hiGreWTvh3-nO5kUzk7D-230" value="criarProduto()" style="text;align=center;verticalAlign=middle;spacingLeft=4;spacingRight=4;overflow=hidden;points=[[0,0.5],[1,0.5]];portConstraint=eastwest;rotatable=0;whiteSpace=wrap;textDirection=ltr;labelBorderColor=none;" vertex="1" parent="hiGreWTvh3-nO5kUzk7D-211">
          <mxGeometry y="210" width="205" height="30" as="geometry" />
        </mxCell>
        <mxCell id="hiGreWTvh3-nO5kUzk7D-231" value="deletarProduto()" style="text;align=center;verticalAlign=middle;spacingLeft=4;spacingRight=4;overflow=hidden;points=[[0,0.5],[1,0.5]];portConstraint=eastwest;rotatable=0;whiteSpace=wrap;textDirection=ltr;labelBorderColor=none;" vertex="1" parent="hiGreWTvh3-nO5kUzk7D-211">
          <mxGeometry y="240" width="205" height="30" as="geometry" />
        </mxCell>
        <mxCell id="hiGreWTvh3-nO5kUzk7D-232" value="atualizarTodoProduto()" style="text;align=center;verticalAlign=middle;spacingLeft=4;spacingRight=4;overflow=hidden;points=[[0,0.5],[1,0.5]];portConstraint=eastwest;rotatable=0;whiteSpace=wrap;textDirection=ltr;labelBorderColor=none;" vertex="1" parent="hiGreWTvh3-nO5kUzk7D-211">
          <mxGeometry y="270" width="205" height="30" as="geometry" />
        </mxCell>
        <mxCell id="hiGreWTvh3-nO5kUzk7D-233" value="ProdutoService" style="swimlane;fontStyle=0;childLayout=stackLayout;horizontal=1;startSize=30;horizontalStack=0;resizeParent=1;resizeParentMax=0;resizeLast=0;collapsible=1;marginBottom=0;whiteSpace=wrap;html=1;fillColor=#d5e8d4;strokeColor=#82b366;" vertex="1" parent="1">
          <mxGeometry x="2514" y="1004" width="205" height="300" as="geometry" />
        </mxCell>
        <mxCell id="hiGreWTvh3-nO5kUzk7D-246" value="Metodos" style="text;strokeColor=#d6b656;fillColor=#fff2cc;align=center;verticalAlign=middle;spacingLeft=4;spacingRight=4;overflow=hidden;points=[[0,0.5],[1,0.5]];portConstraint=eastwest;rotatable=0;whiteSpace=wrap;textDirection=ltr;labelBorderColor=none;" vertex="1" parent="hiGreWTvh3-nO5kUzk7D-233">
          <mxGeometry y="30" width="205" height="30" as="geometry" />
        </mxCell>
        <mxCell id="hiGreWTvh3-nO5kUzk7D-247" value="listarTodosProdutos()" style="text;align=center;verticalAlign=middle;spacingLeft=4;spacingRight=4;overflow=hidden;points=[[0,0.5],[1,0.5]];portConstraint=eastwest;rotatable=0;whiteSpace=wrap;textDirection=ltr;labelBorderColor=none;" vertex="1" parent="hiGreWTvh3-nO5kUzk7D-233">
          <mxGeometry y="60" width="205" height="30" as="geometry" />
        </mxCell>
        <mxCell id="hiGreWTvh3-nO5kUzk7D-248" value="getProdutoPorID()" style="text;align=center;verticalAlign=middle;spacingLeft=4;spacingRight=4;overflow=hidden;points=[[0,0.5],[1,0.5]];portConstraint=eastwest;rotatable=0;whiteSpace=wrap;textDirection=ltr;labelBorderColor=none;" vertex="1" parent="hiGreWTvh3-nO5kUzk7D-233">
          <mxGeometry y="90" width="205" height="30" as="geometry" />
        </mxCell>
        <mxCell id="hiGreWTvh3-nO5kUzk7D-249" value="getProdutoPorTipo()" style="text;align=center;verticalAlign=middle;spacingLeft=4;spacingRight=4;overflow=hidden;points=[[0,0.5],[1,0.5]];portConstraint=eastwest;rotatable=0;whiteSpace=wrap;textDirection=ltr;labelBorderColor=none;" vertex="1" parent="hiGreWTvh3-nO5kUzk7D-233">
          <mxGeometry y="120" width="205" height="30" as="geometry" />
        </mxCell>
        <mxCell id="hiGreWTvh3-nO5kUzk7D-252" value="criarProduto()" style="text;align=center;verticalAlign=middle;spacingLeft=4;spacingRight=4;overflow=hidden;points=[[0,0.5],[1,0.5]];portConstraint=eastwest;rotatable=0;whiteSpace=wrap;textDirection=ltr;labelBorderColor=none;" vertex="1" parent="hiGreWTvh3-nO5kUzk7D-233">
          <mxGeometry y="150" width="205" height="30" as="geometry" />
        </mxCell>
        <mxCell id="hiGreWTvh3-nO5kUzk7D-250" value="adicionarImagem()" style="text;align=center;verticalAlign=middle;spacingLeft=4;spacingRight=4;overflow=hidden;points=[[0,0.5],[1,0.5]];portConstraint=eastwest;rotatable=0;whiteSpace=wrap;textDirection=ltr;labelBorderColor=none;" vertex="1" parent="hiGreWTvh3-nO5kUzk7D-233">
          <mxGeometry y="180" width="205" height="30" as="geometry" />
        </mxCell>
        <mxCell id="hiGreWTvh3-nO5kUzk7D-251" value="getFoto()" style="text;align=center;verticalAlign=middle;spacingLeft=4;spacingRight=4;overflow=hidden;points=[[0,0.5],[1,0.5]];portConstraint=eastwest;rotatable=0;whiteSpace=wrap;textDirection=ltr;labelBorderColor=none;" vertex="1" parent="hiGreWTvh3-nO5kUzk7D-233">
          <mxGeometry y="210" width="205" height="30" as="geometry" />
        </mxCell>
        <mxCell id="hiGreWTvh3-nO5kUzk7D-253" value="deletarProduto()" style="text;align=center;verticalAlign=middle;spacingLeft=4;spacingRight=4;overflow=hidden;points=[[0,0.5],[1,0.5]];portConstraint=eastwest;rotatable=0;whiteSpace=wrap;textDirection=ltr;labelBorderColor=none;" vertex="1" parent="hiGreWTvh3-nO5kUzk7D-233">
          <mxGeometry y="240" width="205" height="30" as="geometry" />
        </mxCell>
        <mxCell id="hiGreWTvh3-nO5kUzk7D-254" value="atualizarProduto()" style="text;align=center;verticalAlign=middle;spacingLeft=4;spacingRight=4;overflow=hidden;points=[[0,0.5],[1,0.5]];portConstraint=eastwest;rotatable=0;whiteSpace=wrap;textDirection=ltr;labelBorderColor=none;" vertex="1" parent="hiGreWTvh3-nO5kUzk7D-233">
          <mxGeometry y="270" width="205" height="30" as="geometry" />
        </mxCell>
        <mxCell id="hiGreWTvh3-nO5kUzk7D-256" value="ParceiroComercialHelper" style="swimlane;fontStyle=0;childLayout=stackLayout;horizontal=1;startSize=30;horizontalStack=0;resizeParent=1;resizeParentMax=0;resizeLast=0;collapsible=1;marginBottom=0;whiteSpace=wrap;html=1;fillColor=#d5e8d4;strokeColor=#82b366;" vertex="1" parent="1">
          <mxGeometry x="1681" y="805" width="223" height="210" as="geometry" />
        </mxCell>
        <mxCell id="hiGreWTvh3-nO5kUzk7D-257" value="Metodos" style="text;strokeColor=#d6b656;fillColor=#fff2cc;align=center;verticalAlign=middle;spacingLeft=4;spacingRight=4;overflow=hidden;points=[[0,0.5],[1,0.5]];portConstraint=eastwest;rotatable=0;whiteSpace=wrap;textDirection=ltr;labelBorderColor=none;" vertex="1" parent="hiGreWTvh3-nO5kUzk7D-256">
          <mxGeometry y="30" width="223" height="30" as="geometry" />
        </mxCell>
        <mxCell id="hiGreWTvh3-nO5kUzk7D-258" value="atualizarTipoParceiro()" style="text;align=center;verticalAlign=middle;spacingLeft=4;spacingRight=4;overflow=hidden;points=[[0,0.5],[1,0.5]];portConstraint=eastwest;rotatable=0;whiteSpace=wrap;textDirection=ltr;labelBorderColor=none;" vertex="1" parent="hiGreWTvh3-nO5kUzk7D-256">
          <mxGeometry y="60" width="223" height="30" as="geometry" />
        </mxCell>
        <mxCell id="hiGreWTvh3-nO5kUzk7D-260" value="atualizarPapelParceiro()" style="text;align=center;verticalAlign=middle;spacingLeft=4;spacingRight=4;overflow=hidden;points=[[0,0.5],[1,0.5]];portConstraint=eastwest;rotatable=0;whiteSpace=wrap;textDirection=ltr;labelBorderColor=none;" vertex="1" parent="hiGreWTvh3-nO5kUzk7D-256">
          <mxGeometry y="90" width="223" height="30" as="geometry" />
        </mxCell>
        <mxCell id="hiGreWTvh3-nO5kUzk7D-261" value="atualizarTelefoneParceiro()" style="text;align=center;verticalAlign=middle;spacingLeft=4;spacingRight=4;overflow=hidden;points=[[0,0.5],[1,0.5]];portConstraint=eastwest;rotatable=0;whiteSpace=wrap;textDirection=ltr;labelBorderColor=none;" vertex="1" parent="hiGreWTvh3-nO5kUzk7D-256">
          <mxGeometry y="120" width="223" height="30" as="geometry" />
        </mxCell>
        <mxCell id="hiGreWTvh3-nO5kUzk7D-259" value="atualizarNomeParceiro()" style="text;align=center;verticalAlign=middle;spacingLeft=4;spacingRight=4;overflow=hidden;points=[[0,0.5],[1,0.5]];portConstraint=eastwest;rotatable=0;whiteSpace=wrap;textDirection=ltr;labelBorderColor=none;" vertex="1" parent="hiGreWTvh3-nO5kUzk7D-256">
          <mxGeometry y="150" width="223" height="30" as="geometry" />
        </mxCell>
        <mxCell id="hiGreWTvh3-nO5kUzk7D-262" value="atualizarParceiro()" style="text;align=center;verticalAlign=middle;spacingLeft=4;spacingRight=4;overflow=hidden;points=[[0,0.5],[1,0.5]];portConstraint=eastwest;rotatable=0;whiteSpace=wrap;textDirection=ltr;labelBorderColor=none;" vertex="1" parent="hiGreWTvh3-nO5kUzk7D-256">
          <mxGeometry y="180" width="223" height="30" as="geometry" />
        </mxCell>
        <mxCell id="hiGreWTvh3-nO5kUzk7D-263" value="ProdutoHelper" style="swimlane;fontStyle=0;childLayout=stackLayout;horizontal=1;startSize=30;horizontalStack=0;resizeParent=1;resizeParentMax=0;resizeLast=0;collapsible=1;marginBottom=0;whiteSpace=wrap;html=1;fillColor=#d5e8d4;strokeColor=#82b366;" vertex="1" parent="1">
          <mxGeometry x="2517" y="835" width="205" height="150" as="geometry" />
        </mxCell>
        <mxCell id="hiGreWTvh3-nO5kUzk7D-436" value="" style="endArrow=diamondThin;endFill=1;endSize=24;html=1;rounded=0;fontSize=12;curved=0;entryX=1.01;entryY=0.054;entryDx=0;entryDy=0;entryPerimeter=0;exitX=1.005;exitY=0.037;exitDx=0;exitDy=0;exitPerimeter=0;" edge="1" parent="hiGreWTvh3-nO5kUzk7D-263" source="hiGreWTvh3-nO5kUzk7D-233">
          <mxGeometry width="160" relative="1" as="geometry">
            <mxPoint x="326" y="-77" as="sourcePoint" />
            <mxPoint x="103" y="1" as="targetPoint" />
            <Array as="points">
              <mxPoint x="245" y="180" />
              <mxPoint x="247" y="-44" />
              <mxPoint x="104" y="-44" />
            </Array>
          </mxGeometry>
        </mxCell>
        <mxCell id="hiGreWTvh3-nO5kUzk7D-264" value="Metodos" style="text;strokeColor=#d6b656;fillColor=#fff2cc;align=center;verticalAlign=middle;spacingLeft=4;spacingRight=4;overflow=hidden;points=[[0,0.5],[1,0.5]];portConstraint=eastwest;rotatable=0;whiteSpace=wrap;textDirection=ltr;labelBorderColor=none;" vertex="1" parent="hiGreWTvh3-nO5kUzk7D-263">
          <mxGeometry y="30" width="205" height="30" as="geometry" />
        </mxCell>
        <mxCell id="hiGreWTvh3-nO5kUzk7D-265" value="atualizarNome()" style="text;align=center;verticalAlign=middle;spacingLeft=4;spacingRight=4;overflow=hidden;points=[[0,0.5],[1,0.5]];portConstraint=eastwest;rotatable=0;whiteSpace=wrap;textDirection=ltr;labelBorderColor=none;" vertex="1" parent="hiGreWTvh3-nO5kUzk7D-263">
          <mxGeometry y="60" width="205" height="30" as="geometry" />
        </mxCell>
        <mxCell id="hiGreWTvh3-nO5kUzk7D-271" value="atualizarTipoProduto()" style="text;align=center;verticalAlign=middle;spacingLeft=4;spacingRight=4;overflow=hidden;points=[[0,0.5],[1,0.5]];portConstraint=eastwest;rotatable=0;whiteSpace=wrap;textDirection=ltr;labelBorderColor=none;" vertex="1" parent="hiGreWTvh3-nO5kUzk7D-263">
          <mxGeometry y="90" width="205" height="30" as="geometry" />
        </mxCell>
        <mxCell id="hiGreWTvh3-nO5kUzk7D-272" value="atualizarProduto()" style="text;align=center;verticalAlign=middle;spacingLeft=4;spacingRight=4;overflow=hidden;points=[[0,0.5],[1,0.5]];portConstraint=eastwest;rotatable=0;whiteSpace=wrap;textDirection=ltr;labelBorderColor=none;" vertex="1" parent="hiGreWTvh3-nO5kUzk7D-263">
          <mxGeometry y="120" width="205" height="30" as="geometry" />
        </mxCell>
        <mxCell id="hiGreWTvh3-nO5kUzk7D-273" value="Tipo Produto" style="swimlane;fontStyle=0;childLayout=stackLayout;horizontal=1;startSize=30;horizontalStack=0;resizeParent=1;resizeParentMax=0;resizeLast=0;collapsible=1;marginBottom=0;whiteSpace=wrap;html=1;fillColor=#d5e8d4;strokeColor=#82b366;" vertex="1" parent="1">
          <mxGeometry x="2840" y="811" width="157" height="150" as="geometry" />
        </mxCell>
        <mxCell id="hiGreWTvh3-nO5kUzk7D-274" value="Atributos" style="text;strokeColor=#6c8ebf;fillColor=#dae8fc;align=center;verticalAlign=middle;spacingLeft=4;spacingRight=4;overflow=hidden;points=[[0,0.5],[1,0.5]];portConstraint=eastwest;rotatable=0;whiteSpace=wrap;textDirection=ltr;labelBorderColor=none;" vertex="1" parent="hiGreWTvh3-nO5kUzk7D-273">
          <mxGeometry y="30" width="157" height="30" as="geometry" />
        </mxCell>
        <mxCell id="hiGreWTvh3-nO5kUzk7D-275" value="ID - Int? (auto increment)" style="text;align=center;verticalAlign=middle;spacingLeft=4;spacingRight=4;overflow=hidden;points=[[0,0.5],[1,0.5]];portConstraint=eastwest;rotatable=0;whiteSpace=wrap;textDirection=ltr;labelBorderColor=none;" vertex="1" parent="hiGreWTvh3-nO5kUzk7D-273">
          <mxGeometry y="60" width="157" height="30" as="geometry" />
        </mxCell>
        <mxCell id="hiGreWTvh3-nO5kUzk7D-276" value="tipo - String?" style="text;align=center;verticalAlign=middle;spacingLeft=4;spacingRight=4;overflow=hidden;points=[[0,0.5],[1,0.5]];portConstraint=eastwest;rotatable=0;whiteSpace=wrap;textDirection=ltr;labelBorderColor=none;" vertex="1" parent="hiGreWTvh3-nO5kUzk7D-273">
          <mxGeometry y="90" width="157" height="30" as="geometry" />
        </mxCell>
        <mxCell id="hiGreWTvh3-nO5kUzk7D-277" value="meta - Double?" style="text;align=center;verticalAlign=middle;spacingLeft=4;spacingRight=4;overflow=hidden;points=[[0,0.5],[1,0.5]];portConstraint=eastwest;rotatable=0;whiteSpace=wrap;textDirection=ltr;labelBorderColor=none;" vertex="1" parent="hiGreWTvh3-nO5kUzk7D-273">
          <mxGeometry y="120" width="157" height="30" as="geometry" />
        </mxCell>
        <mxCell id="hiGreWTvh3-nO5kUzk7D-283" value="TipoProdutoController" style="swimlane;fontStyle=0;childLayout=stackLayout;horizontal=1;startSize=30;horizontalStack=0;resizeParent=1;resizeParentMax=0;resizeLast=0;collapsible=1;marginBottom=0;whiteSpace=wrap;html=1;fillColor=#d5e8d4;strokeColor=#82b366;" vertex="1" parent="1">
          <mxGeometry x="3060" y="811" width="157" height="180" as="geometry" />
        </mxCell>
        <mxCell id="hiGreWTvh3-nO5kUzk7D-288" value="Metodos" style="text;strokeColor=#d6b656;fillColor=#fff2cc;align=center;verticalAlign=middle;spacingLeft=4;spacingRight=4;overflow=hidden;points=[[0,0.5],[1,0.5]];portConstraint=eastwest;rotatable=0;whiteSpace=wrap;textDirection=ltr;labelBorderColor=none;" vertex="1" parent="hiGreWTvh3-nO5kUzk7D-283">
          <mxGeometry y="30" width="157" height="30" as="geometry" />
        </mxCell>
        <mxCell id="hiGreWTvh3-nO5kUzk7D-289" value="listarTodosTiposProdutos()" style="text;align=center;verticalAlign=middle;spacingLeft=4;spacingRight=4;overflow=hidden;points=[[0,0.5],[1,0.5]];portConstraint=eastwest;rotatable=0;whiteSpace=wrap;textDirection=ltr;labelBorderColor=none;" vertex="1" parent="hiGreWTvh3-nO5kUzk7D-283">
          <mxGeometry y="60" width="157" height="30" as="geometry" />
        </mxCell>
        <mxCell id="hiGreWTvh3-nO5kUzk7D-290" value="cadastrarTipoProduto()" style="text;align=center;verticalAlign=middle;spacingLeft=4;spacingRight=4;overflow=hidden;points=[[0,0.5],[1,0.5]];portConstraint=eastwest;rotatable=0;whiteSpace=wrap;textDirection=ltr;labelBorderColor=none;" vertex="1" parent="hiGreWTvh3-nO5kUzk7D-283">
          <mxGeometry y="90" width="157" height="30" as="geometry" />
        </mxCell>
        <mxCell id="hiGreWTvh3-nO5kUzk7D-291" value="deletarTipoProduto()" style="text;align=center;verticalAlign=middle;spacingLeft=4;spacingRight=4;overflow=hidden;points=[[0,0.5],[1,0.5]];portConstraint=eastwest;rotatable=0;whiteSpace=wrap;textDirection=ltr;labelBorderColor=none;" vertex="1" parent="hiGreWTvh3-nO5kUzk7D-283">
          <mxGeometry y="120" width="157" height="30" as="geometry" />
        </mxCell>
        <mxCell id="hiGreWTvh3-nO5kUzk7D-292" value="atualizarTIpoProduto()" style="text;align=center;verticalAlign=middle;spacingLeft=4;spacingRight=4;overflow=hidden;points=[[0,0.5],[1,0.5]];portConstraint=eastwest;rotatable=0;whiteSpace=wrap;textDirection=ltr;labelBorderColor=none;" vertex="1" parent="hiGreWTvh3-nO5kUzk7D-283">
          <mxGeometry y="150" width="157" height="30" as="geometry" />
        </mxCell>
        <mxCell id="hiGreWTvh3-nO5kUzk7D-293" value="TipoProdutoService" style="swimlane;fontStyle=0;childLayout=stackLayout;horizontal=1;startSize=30;horizontalStack=0;resizeParent=1;resizeParentMax=0;resizeLast=0;collapsible=1;marginBottom=0;whiteSpace=wrap;html=1;fillColor=#d5e8d4;strokeColor=#82b366;" vertex="1" parent="1">
          <mxGeometry x="3263" y="811" width="157" height="180" as="geometry" />
        </mxCell>
        <mxCell id="hiGreWTvh3-nO5kUzk7D-294" value="Metodos" style="text;strokeColor=#d6b656;fillColor=#fff2cc;align=center;verticalAlign=middle;spacingLeft=4;spacingRight=4;overflow=hidden;points=[[0,0.5],[1,0.5]];portConstraint=eastwest;rotatable=0;whiteSpace=wrap;textDirection=ltr;labelBorderColor=none;" vertex="1" parent="hiGreWTvh3-nO5kUzk7D-293">
          <mxGeometry y="30" width="157" height="30" as="geometry" />
        </mxCell>
        <mxCell id="hiGreWTvh3-nO5kUzk7D-295" value="listarTodosTiposProdutos()" style="text;align=center;verticalAlign=middle;spacingLeft=4;spacingRight=4;overflow=hidden;points=[[0,0.5],[1,0.5]];portConstraint=eastwest;rotatable=0;whiteSpace=wrap;textDirection=ltr;labelBorderColor=none;" vertex="1" parent="hiGreWTvh3-nO5kUzk7D-293">
          <mxGeometry y="60" width="157" height="30" as="geometry" />
        </mxCell>
        <mxCell id="hiGreWTvh3-nO5kUzk7D-296" value="cadastrarTipoProduto()" style="text;align=center;verticalAlign=middle;spacingLeft=4;spacingRight=4;overflow=hidden;points=[[0,0.5],[1,0.5]];portConstraint=eastwest;rotatable=0;whiteSpace=wrap;textDirection=ltr;labelBorderColor=none;" vertex="1" parent="hiGreWTvh3-nO5kUzk7D-293">
          <mxGeometry y="90" width="157" height="30" as="geometry" />
        </mxCell>
        <mxCell id="hiGreWTvh3-nO5kUzk7D-297" value="deletarTipoProduto()" style="text;align=center;verticalAlign=middle;spacingLeft=4;spacingRight=4;overflow=hidden;points=[[0,0.5],[1,0.5]];portConstraint=eastwest;rotatable=0;whiteSpace=wrap;textDirection=ltr;labelBorderColor=none;" vertex="1" parent="hiGreWTvh3-nO5kUzk7D-293">
          <mxGeometry y="120" width="157" height="30" as="geometry" />
        </mxCell>
        <mxCell id="hiGreWTvh3-nO5kUzk7D-298" value="atualizarTIpoProduto()" style="text;align=center;verticalAlign=middle;spacingLeft=4;spacingRight=4;overflow=hidden;points=[[0,0.5],[1,0.5]];portConstraint=eastwest;rotatable=0;whiteSpace=wrap;textDirection=ltr;labelBorderColor=none;" vertex="1" parent="hiGreWTvh3-nO5kUzk7D-293">
          <mxGeometry y="150" width="157" height="30" as="geometry" />
        </mxCell>
        <mxCell id="hiGreWTvh3-nO5kUzk7D-300" value="Transacao" style="swimlane;fontStyle=0;childLayout=stackLayout;horizontal=1;startSize=30;horizontalStack=0;resizeParent=1;resizeParentMax=0;resizeLast=0;collapsible=1;marginBottom=0;whiteSpace=wrap;html=1;fillColor=#d5e8d4;strokeColor=#82b366;" vertex="1" parent="1">
          <mxGeometry x="3495" y="810" width="235" height="330" as="geometry" />
        </mxCell>
        <mxCell id="hiGreWTvh3-nO5kUzk7D-301" value="Atributos" style="text;strokeColor=#6c8ebf;fillColor=#dae8fc;align=center;verticalAlign=middle;spacingLeft=4;spacingRight=4;overflow=hidden;points=[[0,0.5],[1,0.5]];portConstraint=eastwest;rotatable=0;whiteSpace=wrap;textDirection=ltr;labelBorderColor=none;" vertex="1" parent="hiGreWTvh3-nO5kUzk7D-300">
          <mxGeometry y="30" width="235" height="30" as="geometry" />
        </mxCell>
        <mxCell id="hiGreWTvh3-nO5kUzk7D-302" value="Id - Int? (auto increment)" style="text;align=center;verticalAlign=middle;spacingLeft=4;spacingRight=4;overflow=hidden;points=[[0,0.5],[1,0.5]];portConstraint=eastwest;rotatable=0;whiteSpace=wrap;textDirection=ltr;labelBorderColor=none;" vertex="1" parent="hiGreWTvh3-nO5kUzk7D-300">
          <mxGeometry y="60" width="235" height="30" as="geometry" />
        </mxCell>
        <mxCell id="hiGreWTvh3-nO5kUzk7D-303" value="fkUsuario - Usuario?" style="text;align=center;verticalAlign=middle;spacingLeft=4;spacingRight=4;overflow=hidden;points=[[0,0.5],[1,0.5]];portConstraint=eastwest;rotatable=0;whiteSpace=wrap;textDirection=ltr;labelBorderColor=none;" vertex="1" parent="hiGreWTvh3-nO5kUzk7D-300">
          <mxGeometry y="90" width="235" height="30" as="geometry" />
        </mxCell>
        <mxCell id="hiGreWTvh3-nO5kUzk7D-304" value="fkParceiroComercial - ParceiroComercial?" style="text;align=center;verticalAlign=middle;spacingLeft=4;spacingRight=4;overflow=hidden;points=[[0,0.5],[1,0.5]];portConstraint=eastwest;rotatable=0;whiteSpace=wrap;textDirection=ltr;labelBorderColor=none;" vertex="1" parent="hiGreWTvh3-nO5kUzk7D-300">
          <mxGeometry y="120" width="235" height="30" as="geometry" />
        </mxCell>
        <mxCell id="hiGreWTvh3-nO5kUzk7D-305" value="fkProduto - Produto?" style="text;align=center;verticalAlign=middle;spacingLeft=4;spacingRight=4;overflow=hidden;points=[[0,0.5],[1,0.5]];portConstraint=eastwest;rotatable=0;whiteSpace=wrap;textDirection=ltr;labelBorderColor=none;" vertex="1" parent="hiGreWTvh3-nO5kUzk7D-300">
          <mxGeometry y="150" width="235" height="30" as="geometry" />
        </mxCell>
        <mxCell id="hiGreWTvh3-nO5kUzk7D-306" value="categoria - CategoriaEnum?" style="text;align=center;verticalAlign=middle;spacingLeft=4;spacingRight=4;overflow=hidden;points=[[0,0.5],[1,0.5]];portConstraint=eastwest;rotatable=0;whiteSpace=wrap;textDirection=ltr;labelBorderColor=none;" vertex="1" parent="hiGreWTvh3-nO5kUzk7D-300">
          <mxGeometry y="180" width="235" height="30" as="geometry" />
        </mxCell>
        <mxCell id="hiGreWTvh3-nO5kUzk7D-307" value="tipoOperacao - tipoOperacaoEnum?" style="text;align=center;verticalAlign=middle;spacingLeft=4;spacingRight=4;overflow=hidden;points=[[0,0.5],[1,0.5]];portConstraint=eastwest;rotatable=0;whiteSpace=wrap;textDirection=ltr;labelBorderColor=none;" vertex="1" parent="hiGreWTvh3-nO5kUzk7D-300">
          <mxGeometry y="210" width="235" height="30" as="geometry" />
        </mxCell>
        <mxCell id="hiGreWTvh3-nO5kUzk7D-308" value="peso - Double?" style="text;align=center;verticalAlign=middle;spacingLeft=4;spacingRight=4;overflow=hidden;points=[[0,0.5],[1,0.5]];portConstraint=eastwest;rotatable=0;whiteSpace=wrap;textDirection=ltr;labelBorderColor=none;" vertex="1" parent="hiGreWTvh3-nO5kUzk7D-300">
          <mxGeometry y="240" width="235" height="30" as="geometry" />
        </mxCell>
        <mxCell id="hiGreWTvh3-nO5kUzk7D-309" value="valorTotal - Double?" style="text;align=center;verticalAlign=middle;spacingLeft=4;spacingRight=4;overflow=hidden;points=[[0,0.5],[1,0.5]];portConstraint=eastwest;rotatable=0;whiteSpace=wrap;textDirection=ltr;labelBorderColor=none;" vertex="1" parent="hiGreWTvh3-nO5kUzk7D-300">
          <mxGeometry y="270" width="235" height="30" as="geometry" />
        </mxCell>
        <mxCell id="hiGreWTvh3-nO5kUzk7D-310" value="Metodos" style="text;align=center;verticalAlign=middle;spacingLeft=4;spacingRight=4;overflow=hidden;points=[[0,0.5],[1,0.5]];portConstraint=eastwest;rotatable=0;whiteSpace=wrap;textDirection=ltr;labelBorderColor=none;" vertex="1" parent="hiGreWTvh3-nO5kUzk7D-300">
          <mxGeometry y="300" width="235" height="30" as="geometry" />
        </mxCell>
        <mxCell id="hiGreWTvh3-nO5kUzk7D-317" value="TransacaoController" style="swimlane;fontStyle=0;childLayout=stackLayout;horizontal=1;startSize=30;horizontalStack=0;resizeParent=1;resizeParentMax=0;resizeLast=0;collapsible=1;marginBottom=0;whiteSpace=wrap;html=1;fillColor=#d5e8d4;strokeColor=#82b366;" vertex="1" parent="1">
          <mxGeometry x="3834" y="807" width="235" height="210" as="geometry" />
        </mxCell>
        <mxCell id="hiGreWTvh3-nO5kUzk7D-328" value="Metodos" style="text;strokeColor=#d6b656;fillColor=#fff2cc;align=center;verticalAlign=middle;spacingLeft=4;spacingRight=4;overflow=hidden;points=[[0,0.5],[1,0.5]];portConstraint=eastwest;rotatable=0;whiteSpace=wrap;textDirection=ltr;labelBorderColor=none;" vertex="1" parent="hiGreWTvh3-nO5kUzk7D-317">
          <mxGeometry y="30" width="235" height="30" as="geometry" />
        </mxCell>
        <mxCell id="hiGreWTvh3-nO5kUzk7D-329" value="post()" style="text;align=center;verticalAlign=middle;spacingLeft=4;spacingRight=4;overflow=hidden;points=[[0,0.5],[1,0.5]];portConstraint=eastwest;rotatable=0;whiteSpace=wrap;textDirection=ltr;labelBorderColor=none;" vertex="1" parent="hiGreWTvh3-nO5kUzk7D-317">
          <mxGeometry y="60" width="235" height="30" as="geometry" />
        </mxCell>
        <mxCell id="hiGreWTvh3-nO5kUzk7D-330" value="listaTransacoes()" style="text;align=center;verticalAlign=middle;spacingLeft=4;spacingRight=4;overflow=hidden;points=[[0,0.5],[1,0.5]];portConstraint=eastwest;rotatable=0;whiteSpace=wrap;textDirection=ltr;labelBorderColor=none;" vertex="1" parent="hiGreWTvh3-nO5kUzk7D-317">
          <mxGeometry y="90" width="235" height="30" as="geometry" />
        </mxCell>
        <mxCell id="hiGreWTvh3-nO5kUzk7D-331" value="filtrarTransacoes()" style="text;align=center;verticalAlign=middle;spacingLeft=4;spacingRight=4;overflow=hidden;points=[[0,0.5],[1,0.5]];portConstraint=eastwest;rotatable=0;whiteSpace=wrap;textDirection=ltr;labelBorderColor=none;" vertex="1" parent="hiGreWTvh3-nO5kUzk7D-317">
          <mxGeometry y="120" width="235" height="30" as="geometry" />
        </mxCell>
        <mxCell id="hiGreWTvh3-nO5kUzk7D-332" value="atualizarTransacao()" style="text;align=center;verticalAlign=middle;spacingLeft=4;spacingRight=4;overflow=hidden;points=[[0,0.5],[1,0.5]];portConstraint=eastwest;rotatable=0;whiteSpace=wrap;textDirection=ltr;labelBorderColor=none;" vertex="1" parent="hiGreWTvh3-nO5kUzk7D-317">
          <mxGeometry y="150" width="235" height="30" as="geometry" />
        </mxCell>
        <mxCell id="hiGreWTvh3-nO5kUzk7D-333" value="delete()" style="text;align=center;verticalAlign=middle;spacingLeft=4;spacingRight=4;overflow=hidden;points=[[0,0.5],[1,0.5]];portConstraint=eastwest;rotatable=0;whiteSpace=wrap;textDirection=ltr;labelBorderColor=none;" vertex="1" parent="hiGreWTvh3-nO5kUzk7D-317">
          <mxGeometry y="180" width="235" height="30" as="geometry" />
        </mxCell>
        <mxCell id="hiGreWTvh3-nO5kUzk7D-351" value="TransacaoService" style="swimlane;fontStyle=0;childLayout=stackLayout;horizontal=1;startSize=30;horizontalStack=0;resizeParent=1;resizeParentMax=0;resizeLast=0;collapsible=1;marginBottom=0;whiteSpace=wrap;html=1;fillColor=#d5e8d4;strokeColor=#82b366;" vertex="1" parent="1">
          <mxGeometry x="4127" y="1151" width="235" height="270" as="geometry" />
        </mxCell>
        <mxCell id="hiGreWTvh3-nO5kUzk7D-352" value="Metodos" style="text;strokeColor=#d6b656;fillColor=#fff2cc;align=center;verticalAlign=middle;spacingLeft=4;spacingRight=4;overflow=hidden;points=[[0,0.5],[1,0.5]];portConstraint=eastwest;rotatable=0;whiteSpace=wrap;textDirection=ltr;labelBorderColor=none;" vertex="1" parent="hiGreWTvh3-nO5kUzk7D-351">
          <mxGeometry y="30" width="235" height="30" as="geometry" />
        </mxCell>
        <mxCell id="hiGreWTvh3-nO5kUzk7D-353" value="buscarId()" style="text;align=center;verticalAlign=middle;spacingLeft=4;spacingRight=4;overflow=hidden;points=[[0,0.5],[1,0.5]];portConstraint=eastwest;rotatable=0;whiteSpace=wrap;textDirection=ltr;labelBorderColor=none;" vertex="1" parent="hiGreWTvh3-nO5kUzk7D-351">
          <mxGeometry y="60" width="235" height="30" as="geometry" />
        </mxCell>
        <mxCell id="hiGreWTvh3-nO5kUzk7D-354" value="criarTransacao()" style="text;align=center;verticalAlign=middle;spacingLeft=4;spacingRight=4;overflow=hidden;points=[[0,0.5],[1,0.5]];portConstraint=eastwest;rotatable=0;whiteSpace=wrap;textDirection=ltr;labelBorderColor=none;" vertex="1" parent="hiGreWTvh3-nO5kUzk7D-351">
          <mxGeometry y="90" width="235" height="30" as="geometry" />
        </mxCell>
        <mxCell id="hiGreWTvh3-nO5kUzk7D-355" value="listarTransacoes()" style="text;align=center;verticalAlign=middle;spacingLeft=4;spacingRight=4;overflow=hidden;points=[[0,0.5],[1,0.5]];portConstraint=eastwest;rotatable=0;whiteSpace=wrap;textDirection=ltr;labelBorderColor=none;" vertex="1" parent="hiGreWTvh3-nO5kUzk7D-351">
          <mxGeometry y="120" width="235" height="30" as="geometry" />
        </mxCell>
        <mxCell id="hiGreWTvh3-nO5kUzk7D-357" value="listarTransacaoPorId()" style="text;align=center;verticalAlign=middle;spacingLeft=4;spacingRight=4;overflow=hidden;points=[[0,0.5],[1,0.5]];portConstraint=eastwest;rotatable=0;whiteSpace=wrap;textDirection=ltr;labelBorderColor=none;" vertex="1" parent="hiGreWTvh3-nO5kUzk7D-351">
          <mxGeometry y="150" width="235" height="30" as="geometry" />
        </mxCell>
        <mxCell id="hiGreWTvh3-nO5kUzk7D-356" value="filtrarTransacoes()" style="text;align=center;verticalAlign=middle;spacingLeft=4;spacingRight=4;overflow=hidden;points=[[0,0.5],[1,0.5]];portConstraint=eastwest;rotatable=0;whiteSpace=wrap;textDirection=ltr;labelBorderColor=none;" vertex="1" parent="hiGreWTvh3-nO5kUzk7D-351">
          <mxGeometry y="180" width="235" height="30" as="geometry" />
        </mxCell>
        <mxCell id="hiGreWTvh3-nO5kUzk7D-367" value="atualiazarTransacao()" style="text;align=center;verticalAlign=middle;spacingLeft=4;spacingRight=4;overflow=hidden;points=[[0,0.5],[1,0.5]];portConstraint=eastwest;rotatable=0;whiteSpace=wrap;textDirection=ltr;labelBorderColor=none;" vertex="1" parent="hiGreWTvh3-nO5kUzk7D-351">
          <mxGeometry y="210" width="235" height="30" as="geometry" />
        </mxCell>
        <mxCell id="hiGreWTvh3-nO5kUzk7D-368" value="deletarTransacao()" style="text;align=center;verticalAlign=middle;spacingLeft=4;spacingRight=4;overflow=hidden;points=[[0,0.5],[1,0.5]];portConstraint=eastwest;rotatable=0;whiteSpace=wrap;textDirection=ltr;labelBorderColor=none;" vertex="1" parent="hiGreWTvh3-nO5kUzk7D-351">
          <mxGeometry y="240" width="235" height="30" as="geometry" />
        </mxCell>
        <mxCell id="hiGreWTvh3-nO5kUzk7D-358" value="TransacaoHelper" style="swimlane;fontStyle=0;childLayout=stackLayout;horizontal=1;startSize=30;horizontalStack=0;resizeParent=1;resizeParentMax=0;resizeLast=0;collapsible=1;marginBottom=0;whiteSpace=wrap;html=1;fillColor=#d5e8d4;strokeColor=#82b366;" vertex="1" parent="1">
          <mxGeometry x="4127" y="835" width="235" height="270" as="geometry" />
        </mxCell>
        <mxCell id="hiGreWTvh3-nO5kUzk7D-359" value="Metodos" style="text;strokeColor=#d6b656;fillColor=#fff2cc;align=center;verticalAlign=middle;spacingLeft=4;spacingRight=4;overflow=hidden;points=[[0,0.5],[1,0.5]];portConstraint=eastwest;rotatable=0;whiteSpace=wrap;textDirection=ltr;labelBorderColor=none;" vertex="1" parent="hiGreWTvh3-nO5kUzk7D-358">
          <mxGeometry y="30" width="235" height="30" as="geometry" />
        </mxCell>
        <mxCell id="hiGreWTvh3-nO5kUzk7D-360" value="atualizarFkProduto()" style="text;align=center;verticalAlign=middle;spacingLeft=4;spacingRight=4;overflow=hidden;points=[[0,0.5],[1,0.5]];portConstraint=eastwest;rotatable=0;whiteSpace=wrap;textDirection=ltr;labelBorderColor=none;" vertex="1" parent="hiGreWTvh3-nO5kUzk7D-358">
          <mxGeometry y="60" width="235" height="30" as="geometry" />
        </mxCell>
        <mxCell id="hiGreWTvh3-nO5kUzk7D-361" value="atualizarCategoria()" style="text;align=center;verticalAlign=middle;spacingLeft=4;spacingRight=4;overflow=hidden;points=[[0,0.5],[1,0.5]];portConstraint=eastwest;rotatable=0;whiteSpace=wrap;textDirection=ltr;labelBorderColor=none;" vertex="1" parent="hiGreWTvh3-nO5kUzk7D-358">
          <mxGeometry y="90" width="235" height="30" as="geometry" />
        </mxCell>
        <mxCell id="hiGreWTvh3-nO5kUzk7D-362" value="atualizarPeso()" style="text;align=center;verticalAlign=middle;spacingLeft=4;spacingRight=4;overflow=hidden;points=[[0,0.5],[1,0.5]];portConstraint=eastwest;rotatable=0;whiteSpace=wrap;textDirection=ltr;labelBorderColor=none;" vertex="1" parent="hiGreWTvh3-nO5kUzk7D-358">
          <mxGeometry y="120" width="235" height="30" as="geometry" />
        </mxCell>
        <mxCell id="hiGreWTvh3-nO5kUzk7D-363" value="atualizarPreco()" style="text;align=center;verticalAlign=middle;spacingLeft=4;spacingRight=4;overflow=hidden;points=[[0,0.5],[1,0.5]];portConstraint=eastwest;rotatable=0;whiteSpace=wrap;textDirection=ltr;labelBorderColor=none;" vertex="1" parent="hiGreWTvh3-nO5kUzk7D-358">
          <mxGeometry y="150" width="235" height="30" as="geometry" />
        </mxCell>
        <mxCell id="hiGreWTvh3-nO5kUzk7D-364" value="atualizarTipoOperacao()" style="text;align=center;verticalAlign=middle;spacingLeft=4;spacingRight=4;overflow=hidden;points=[[0,0.5],[1,0.5]];portConstraint=eastwest;rotatable=0;whiteSpace=wrap;textDirection=ltr;labelBorderColor=none;" vertex="1" parent="hiGreWTvh3-nO5kUzk7D-358">
          <mxGeometry y="180" width="235" height="30" as="geometry" />
        </mxCell>
        <mxCell id="hiGreWTvh3-nO5kUzk7D-365" value="atualizarFkParceiroComercial()" style="text;align=center;verticalAlign=middle;spacingLeft=4;spacingRight=4;overflow=hidden;points=[[0,0.5],[1,0.5]];portConstraint=eastwest;rotatable=0;whiteSpace=wrap;textDirection=ltr;labelBorderColor=none;" vertex="1" parent="hiGreWTvh3-nO5kUzk7D-358">
          <mxGeometry y="210" width="235" height="30" as="geometry" />
        </mxCell>
        <mxCell id="hiGreWTvh3-nO5kUzk7D-366" value="buscarID()" style="text;align=center;verticalAlign=middle;spacingLeft=4;spacingRight=4;overflow=hidden;points=[[0,0.5],[1,0.5]];portConstraint=eastwest;rotatable=0;whiteSpace=wrap;textDirection=ltr;labelBorderColor=none;" vertex="1" parent="hiGreWTvh3-nO5kUzk7D-358">
          <mxGeometry y="240" width="235" height="30" as="geometry" />
        </mxCell>
        <mxCell id="hiGreWTvh3-nO5kUzk7D-442" value="" style="endArrow=diamondThin;endFill=1;endSize=24;html=1;rounded=0;fontSize=12;curved=0;entryX=0.994;entryY=0.095;entryDx=0;entryDy=0;entryPerimeter=0;" edge="1" parent="hiGreWTvh3-nO5kUzk7D-358" source="hiGreWTvh3-nO5kUzk7D-351">
          <mxGeometry width="160" relative="1" as="geometry">
            <mxPoint x="217" y="270" as="sourcePoint" />
            <mxPoint x="113" y="270" as="targetPoint" />
            <Array as="points" />
          </mxGeometry>
        </mxCell>
        <mxCell id="hiGreWTvh3-nO5kUzk7D-370" value="Usuario" style="swimlane;fontStyle=0;childLayout=stackLayout;horizontal=1;startSize=30;horizontalStack=0;resizeParent=1;resizeParentMax=0;resizeLast=0;collapsible=1;marginBottom=0;whiteSpace=wrap;html=1;fillColor=#d5e8d4;strokeColor=#82b366;" vertex="1" parent="1">
          <mxGeometry x="4563" y="811" width="249" height="300" as="geometry" />
        </mxCell>
        <mxCell id="hiGreWTvh3-nO5kUzk7D-371" value="Atributos" style="text;strokeColor=#6c8ebf;fillColor=#dae8fc;align=center;verticalAlign=middle;spacingLeft=4;spacingRight=4;overflow=hidden;points=[[0,0.5],[1,0.5]];portConstraint=eastwest;rotatable=0;whiteSpace=wrap;textDirection=ltr;labelBorderColor=none;" vertex="1" parent="hiGreWTvh3-nO5kUzk7D-370">
          <mxGeometry y="30" width="249" height="30" as="geometry" />
        </mxCell>
        <mxCell id="hiGreWTvh3-nO5kUzk7D-372" value="codigoFuncionario - Int? (auto increment)" style="text;align=center;verticalAlign=middle;spacingLeft=4;spacingRight=4;overflow=hidden;points=[[0,0.5],[1,0.5]];portConstraint=eastwest;rotatable=0;whiteSpace=wrap;textDirection=ltr;labelBorderColor=none;" vertex="1" parent="hiGreWTvh3-nO5kUzk7D-370">
          <mxGeometry y="60" width="249" height="30" as="geometry" />
        </mxCell>
        <mxCell id="hiGreWTvh3-nO5kUzk7D-373" value="nome - String?" style="text;align=center;verticalAlign=middle;spacingLeft=4;spacingRight=4;overflow=hidden;points=[[0,0.5],[1,0.5]];portConstraint=eastwest;rotatable=0;whiteSpace=wrap;textDirection=ltr;labelBorderColor=none;" vertex="1" parent="hiGreWTvh3-nO5kUzk7D-370">
          <mxGeometry y="90" width="249" height="30" as="geometry" />
        </mxCell>
        <mxCell id="hiGreWTvh3-nO5kUzk7D-374" value="senha - String?" style="text;align=center;verticalAlign=middle;spacingLeft=4;spacingRight=4;overflow=hidden;points=[[0,0.5],[1,0.5]];portConstraint=eastwest;rotatable=0;whiteSpace=wrap;textDirection=ltr;labelBorderColor=none;" vertex="1" parent="hiGreWTvh3-nO5kUzk7D-370">
          <mxGeometry y="120" width="249" height="30" as="geometry" />
        </mxCell>
        <mxCell id="hiGreWTvh3-nO5kUzk7D-375" value="dataCriacao -LocalDateTime" style="text;align=center;verticalAlign=middle;spacingLeft=4;spacingRight=4;overflow=hidden;points=[[0,0.5],[1,0.5]];portConstraint=eastwest;rotatable=0;whiteSpace=wrap;textDirection=ltr;labelBorderColor=none;" vertex="1" parent="hiGreWTvh3-nO5kUzk7D-370">
          <mxGeometry y="150" width="249" height="30" as="geometry" />
        </mxCell>
        <mxCell id="hiGreWTvh3-nO5kUzk7D-376" value="primeiroAcesso - Boolean" style="text;align=center;verticalAlign=middle;spacingLeft=4;spacingRight=4;overflow=hidden;points=[[0,0.5],[1,0.5]];portConstraint=eastwest;rotatable=0;whiteSpace=wrap;textDirection=ltr;labelBorderColor=none;" vertex="1" parent="hiGreWTvh3-nO5kUzk7D-370">
          <mxGeometry y="180" width="249" height="30" as="geometry" />
        </mxCell>
        <mxCell id="hiGreWTvh3-nO5kUzk7D-377" value="tipoUsuario - tipoUsuarioEnum?" style="text;align=center;verticalAlign=middle;spacingLeft=4;spacingRight=4;overflow=hidden;points=[[0,0.5],[1,0.5]];portConstraint=eastwest;rotatable=0;whiteSpace=wrap;textDirection=ltr;labelBorderColor=none;" vertex="1" parent="hiGreWTvh3-nO5kUzk7D-370">
          <mxGeometry y="210" width="249" height="30" as="geometry" />
        </mxCell>
        <mxCell id="hiGreWTvh3-nO5kUzk7D-378" value="ativo - Boolean?" style="text;align=center;verticalAlign=middle;spacingLeft=4;spacingRight=4;overflow=hidden;points=[[0,0.5],[1,0.5]];portConstraint=eastwest;rotatable=0;whiteSpace=wrap;textDirection=ltr;labelBorderColor=none;" vertex="1" parent="hiGreWTvh3-nO5kUzk7D-370">
          <mxGeometry y="240" width="249" height="30" as="geometry" />
        </mxCell>
        <mxCell id="hiGreWTvh3-nO5kUzk7D-379" value="online - Boolean?" style="text;align=center;verticalAlign=middle;spacingLeft=4;spacingRight=4;overflow=hidden;points=[[0,0.5],[1,0.5]];portConstraint=eastwest;rotatable=0;whiteSpace=wrap;textDirection=ltr;labelBorderColor=none;" vertex="1" parent="hiGreWTvh3-nO5kUzk7D-370">
          <mxGeometry y="270" width="249" height="30" as="geometry" />
        </mxCell>
        <mxCell id="hiGreWTvh3-nO5kUzk7D-389" value="UsuarioController" style="swimlane;fontStyle=0;childLayout=stackLayout;horizontal=1;startSize=30;horizontalStack=0;resizeParent=1;resizeParentMax=0;resizeLast=0;collapsible=1;marginBottom=0;whiteSpace=wrap;html=1;fillColor=#d5e8d4;strokeColor=#82b366;" vertex="1" parent="1">
          <mxGeometry x="4899" y="807" width="249" height="300" as="geometry" />
        </mxCell>
        <mxCell id="hiGreWTvh3-nO5kUzk7D-399" value="Metodos" style="text;strokeColor=#d6b656;fillColor=#fff2cc;align=center;verticalAlign=middle;spacingLeft=4;spacingRight=4;overflow=hidden;points=[[0,0.5],[1,0.5]];portConstraint=eastwest;rotatable=0;whiteSpace=wrap;textDirection=ltr;labelBorderColor=none;" vertex="1" parent="hiGreWTvh3-nO5kUzk7D-389">
          <mxGeometry y="30" width="249" height="30" as="geometry" />
        </mxCell>
        <mxCell id="hiGreWTvh3-nO5kUzk7D-400" value="listarTodosUsuarios()" style="text;align=center;verticalAlign=middle;spacingLeft=4;spacingRight=4;overflow=hidden;points=[[0,0.5],[1,0.5]];portConstraint=eastwest;rotatable=0;whiteSpace=wrap;textDirection=ltr;labelBorderColor=none;" vertex="1" parent="hiGreWTvh3-nO5kUzk7D-389">
          <mxGeometry y="60" width="249" height="30" as="geometry" />
        </mxCell>
        <mxCell id="hiGreWTvh3-nO5kUzk7D-401" value="listarUsuarioId()" style="text;align=center;verticalAlign=middle;spacingLeft=4;spacingRight=4;overflow=hidden;points=[[0,0.5],[1,0.5]];portConstraint=eastwest;rotatable=0;whiteSpace=wrap;textDirection=ltr;labelBorderColor=none;" vertex="1" parent="hiGreWTvh3-nO5kUzk7D-389">
          <mxGeometry y="90" width="249" height="30" as="geometry" />
        </mxCell>
        <mxCell id="hiGreWTvh3-nO5kUzk7D-402" value="patchEditarNomeUsuario()" style="text;align=center;verticalAlign=middle;spacingLeft=4;spacingRight=4;overflow=hidden;points=[[0,0.5],[1,0.5]];portConstraint=eastwest;rotatable=0;whiteSpace=wrap;textDirection=ltr;labelBorderColor=none;" vertex="1" parent="hiGreWTvh3-nO5kUzk7D-389">
          <mxGeometry y="120" width="249" height="30" as="geometry" />
        </mxCell>
        <mxCell id="hiGreWTvh3-nO5kUzk7D-403" value="patchEditarSenhaUsuario()" style="text;align=center;verticalAlign=middle;spacingLeft=4;spacingRight=4;overflow=hidden;points=[[0,0.5],[1,0.5]];portConstraint=eastwest;rotatable=0;whiteSpace=wrap;textDirection=ltr;labelBorderColor=none;" vertex="1" parent="hiGreWTvh3-nO5kUzk7D-389">
          <mxGeometry y="150" width="249" height="30" as="geometry" />
        </mxCell>
        <mxCell id="hiGreWTvh3-nO5kUzk7D-404" value="patchEditarTipoUsuario()" style="text;align=center;verticalAlign=middle;spacingLeft=4;spacingRight=4;overflow=hidden;points=[[0,0.5],[1,0.5]];portConstraint=eastwest;rotatable=0;whiteSpace=wrap;textDirection=ltr;labelBorderColor=none;" vertex="1" parent="hiGreWTvh3-nO5kUzk7D-389">
          <mxGeometry y="180" width="249" height="30" as="geometry" />
        </mxCell>
        <mxCell id="hiGreWTvh3-nO5kUzk7D-405" value="deleteExcluirUsuario()" style="text;align=center;verticalAlign=middle;spacingLeft=4;spacingRight=4;overflow=hidden;points=[[0,0.5],[1,0.5]];portConstraint=eastwest;rotatable=0;whiteSpace=wrap;textDirection=ltr;labelBorderColor=none;" vertex="1" parent="hiGreWTvh3-nO5kUzk7D-389">
          <mxGeometry y="210" width="249" height="30" as="geometry" />
        </mxCell>
        <mxCell id="hiGreWTvh3-nO5kUzk7D-406" value="login()" style="text;align=center;verticalAlign=middle;spacingLeft=4;spacingRight=4;overflow=hidden;points=[[0,0.5],[1,0.5]];portConstraint=eastwest;rotatable=0;whiteSpace=wrap;textDirection=ltr;labelBorderColor=none;" vertex="1" parent="hiGreWTvh3-nO5kUzk7D-389">
          <mxGeometry y="240" width="249" height="30" as="geometry" />
        </mxCell>
        <mxCell id="hiGreWTvh3-nO5kUzk7D-407" value="logoff()" style="text;align=center;verticalAlign=middle;spacingLeft=4;spacingRight=4;overflow=hidden;points=[[0,0.5],[1,0.5]];portConstraint=eastwest;rotatable=0;whiteSpace=wrap;textDirection=ltr;labelBorderColor=none;" vertex="1" parent="hiGreWTvh3-nO5kUzk7D-389">
          <mxGeometry y="270" width="249" height="30" as="geometry" />
        </mxCell>
        <mxCell id="hiGreWTvh3-nO5kUzk7D-408" value="UsuarioService" style="swimlane;fontStyle=0;childLayout=stackLayout;horizontal=1;startSize=30;horizontalStack=0;resizeParent=1;resizeParentMax=0;resizeLast=0;collapsible=1;marginBottom=0;whiteSpace=wrap;html=1;fillColor=#d5e8d4;strokeColor=#82b366;" vertex="1" parent="1">
          <mxGeometry x="5219" y="805" width="249" height="330" as="geometry" />
        </mxCell>
        <mxCell id="hiGreWTvh3-nO5kUzk7D-409" value="Metodos" style="text;strokeColor=#d6b656;fillColor=#fff2cc;align=center;verticalAlign=middle;spacingLeft=4;spacingRight=4;overflow=hidden;points=[[0,0.5],[1,0.5]];portConstraint=eastwest;rotatable=0;whiteSpace=wrap;textDirection=ltr;labelBorderColor=none;" vertex="1" parent="hiGreWTvh3-nO5kUzk7D-408">
          <mxGeometry y="30" width="249" height="30" as="geometry" />
        </mxCell>
        <mxCell id="hiGreWTvh3-nO5kUzk7D-410" value="criarUsuario()" style="text;align=center;verticalAlign=middle;spacingLeft=4;spacingRight=4;overflow=hidden;points=[[0,0.5],[1,0.5]];portConstraint=eastwest;rotatable=0;whiteSpace=wrap;textDirection=ltr;labelBorderColor=none;" vertex="1" parent="hiGreWTvh3-nO5kUzk7D-408">
          <mxGeometry y="60" width="249" height="30" as="geometry" />
        </mxCell>
        <mxCell id="hiGreWTvh3-nO5kUzk7D-411" value="listarTodosUsuarios()" style="text;align=center;verticalAlign=middle;spacingLeft=4;spacingRight=4;overflow=hidden;points=[[0,0.5],[1,0.5]];portConstraint=eastwest;rotatable=0;whiteSpace=wrap;textDirection=ltr;labelBorderColor=none;" vertex="1" parent="hiGreWTvh3-nO5kUzk7D-408">
          <mxGeometry y="90" width="249" height="30" as="geometry" />
        </mxCell>
        <mxCell id="hiGreWTvh3-nO5kUzk7D-412" value="listarUsuarioPorId()" style="text;align=center;verticalAlign=middle;spacingLeft=4;spacingRight=4;overflow=hidden;points=[[0,0.5],[1,0.5]];portConstraint=eastwest;rotatable=0;whiteSpace=wrap;textDirection=ltr;labelBorderColor=none;" vertex="1" parent="hiGreWTvh3-nO5kUzk7D-408">
          <mxGeometry y="120" width="249" height="30" as="geometry" />
        </mxCell>
        <mxCell id="hiGreWTvh3-nO5kUzk7D-413" value="editarNomeUsuario()" style="text;align=center;verticalAlign=middle;spacingLeft=4;spacingRight=4;overflow=hidden;points=[[0,0.5],[1,0.5]];portConstraint=eastwest;rotatable=0;whiteSpace=wrap;textDirection=ltr;labelBorderColor=none;" vertex="1" parent="hiGreWTvh3-nO5kUzk7D-408">
          <mxGeometry y="150" width="249" height="30" as="geometry" />
        </mxCell>
        <mxCell id="hiGreWTvh3-nO5kUzk7D-414" value="editarSenhaUsuario()" style="text;align=center;verticalAlign=middle;spacingLeft=4;spacingRight=4;overflow=hidden;points=[[0,0.5],[1,0.5]];portConstraint=eastwest;rotatable=0;whiteSpace=wrap;textDirection=ltr;labelBorderColor=none;" vertex="1" parent="hiGreWTvh3-nO5kUzk7D-408">
          <mxGeometry y="180" width="249" height="30" as="geometry" />
        </mxCell>
        <mxCell id="hiGreWTvh3-nO5kUzk7D-415" value="editarTipoUsuario()" style="text;align=center;verticalAlign=middle;spacingLeft=4;spacingRight=4;overflow=hidden;points=[[0,0.5],[1,0.5]];portConstraint=eastwest;rotatable=0;whiteSpace=wrap;textDirection=ltr;labelBorderColor=none;" vertex="1" parent="hiGreWTvh3-nO5kUzk7D-408">
          <mxGeometry y="210" width="249" height="30" as="geometry" />
        </mxCell>
        <mxCell id="hiGreWTvh3-nO5kUzk7D-416" value="ExcluirUsuario()" style="text;align=center;verticalAlign=middle;spacingLeft=4;spacingRight=4;overflow=hidden;points=[[0,0.5],[1,0.5]];portConstraint=eastwest;rotatable=0;whiteSpace=wrap;textDirection=ltr;labelBorderColor=none;" vertex="1" parent="hiGreWTvh3-nO5kUzk7D-408">
          <mxGeometry y="240" width="249" height="30" as="geometry" />
        </mxCell>
        <mxCell id="hiGreWTvh3-nO5kUzk7D-417" value="loginUsuario()" style="text;align=center;verticalAlign=middle;spacingLeft=4;spacingRight=4;overflow=hidden;points=[[0,0.5],[1,0.5]];portConstraint=eastwest;rotatable=0;whiteSpace=wrap;textDirection=ltr;labelBorderColor=none;" vertex="1" parent="hiGreWTvh3-nO5kUzk7D-408">
          <mxGeometry y="270" width="249" height="30" as="geometry" />
        </mxCell>
        <mxCell id="hiGreWTvh3-nO5kUzk7D-418" value="logoffUsuario()" style="text;align=center;verticalAlign=middle;spacingLeft=4;spacingRight=4;overflow=hidden;points=[[0,0.5],[1,0.5]];portConstraint=eastwest;rotatable=0;whiteSpace=wrap;textDirection=ltr;labelBorderColor=none;" vertex="1" parent="hiGreWTvh3-nO5kUzk7D-408">
          <mxGeometry y="300" width="249" height="30" as="geometry" />
        </mxCell>
        <mxCell id="hiGreWTvh3-nO5kUzk7D-428" value="" style="endArrow=diamondThin;endFill=1;endSize=24;html=1;rounded=0;fontSize=12;curved=0;entryX=1.012;entryY=0.11;entryDx=0;entryDy=0;entryPerimeter=0;exitX=0.006;exitY=0.13;exitDx=0;exitDy=0;exitPerimeter=0;" edge="1" parent="1" source="hiGreWTvh3-nO5kUzk7D-157" target="hiGreWTvh3-nO5kUzk7D-153">
          <mxGeometry width="160" relative="1" as="geometry">
            <mxPoint x="209" y="825" as="sourcePoint" />
            <mxPoint x="233" y="1034" as="targetPoint" />
            <Array as="points" />
          </mxGeometry>
        </mxCell>
        <mxCell id="hiGreWTvh3-nO5kUzk7D-429" value="" style="endArrow=diamondThin;endFill=1;endSize=24;html=1;rounded=0;fontSize=12;curved=0;entryX=1.012;entryY=0.11;entryDx=0;entryDy=0;entryPerimeter=0;exitX=0.014;exitY=0.09;exitDx=0;exitDy=0;exitPerimeter=0;" edge="1" parent="1" source="hiGreWTvh3-nO5kUzk7D-133">
          <mxGeometry width="160" relative="1" as="geometry">
            <mxPoint x="688" y="825" as="sourcePoint" />
            <mxPoint x="631" y="822" as="targetPoint" />
            <Array as="points" />
          </mxGeometry>
        </mxCell>
        <mxCell id="hiGreWTvh3-nO5kUzk7D-430" value="" style="endArrow=diamondThin;endFill=1;endSize=24;html=1;rounded=0;fontSize=12;curved=0;entryX=1.012;entryY=0.11;entryDx=0;entryDy=0;entryPerimeter=0;exitX=0.005;exitY=0.172;exitDx=0;exitDy=0;exitPerimeter=0;" edge="1" parent="1" source="hiGreWTvh3-nO5kUzk7D-147">
          <mxGeometry width="160" relative="1" as="geometry">
            <mxPoint x="940" y="819" as="sourcePoint" />
            <mxPoint x="883" y="820" as="targetPoint" />
            <Array as="points" />
          </mxGeometry>
        </mxCell>
        <mxCell id="hiGreWTvh3-nO5kUzk7D-431" value="" style="endArrow=diamondThin;endFill=1;endSize=24;html=1;rounded=0;fontSize=12;curved=0;entryX=1.012;entryY=0.11;entryDx=0;entryDy=0;entryPerimeter=0;exitX=0.005;exitY=0.069;exitDx=0;exitDy=0;exitPerimeter=0;" edge="1" parent="1" source="hiGreWTvh3-nO5kUzk7D-173">
          <mxGeometry width="160" relative="1" as="geometry">
            <mxPoint x="1420" y="821" as="sourcePoint" />
            <mxPoint x="1381" y="820" as="targetPoint" />
            <Array as="points" />
          </mxGeometry>
        </mxCell>
        <mxCell id="hiGreWTvh3-nO5kUzk7D-432" value="" style="endArrow=diamondThin;endFill=1;endSize=24;html=1;rounded=0;fontSize=12;curved=0;entryX=1.012;entryY=0.11;entryDx=0;entryDy=0;entryPerimeter=0;exitX=0.005;exitY=0.069;exitDx=0;exitDy=0;exitPerimeter=0;" edge="1" parent="1">
          <mxGeometry width="160" relative="1" as="geometry">
            <mxPoint x="1681" y="822" as="sourcePoint" />
            <mxPoint x="1642" y="822" as="targetPoint" />
            <Array as="points" />
          </mxGeometry>
        </mxCell>
        <mxCell id="hiGreWTvh3-nO5kUzk7D-433" value="" style="endArrow=diamondThin;endFill=1;endSize=24;html=1;rounded=0;fontSize=12;curved=0;entryX=1.012;entryY=0.11;entryDx=0;entryDy=0;entryPerimeter=0;exitX=0.487;exitY=0.011;exitDx=0;exitDy=0;exitPerimeter=0;" edge="1" parent="1" source="hiGreWTvh3-nO5kUzk7D-182">
          <mxGeometry width="160" relative="1" as="geometry">
            <mxPoint x="1828" y="1015" as="sourcePoint" />
            <mxPoint x="1789" y="1015" as="targetPoint" />
            <Array as="points" />
          </mxGeometry>
        </mxCell>
        <mxCell id="hiGreWTvh3-nO5kUzk7D-434" value="" style="endArrow=diamondThin;endFill=1;endSize=24;html=1;rounded=0;fontSize=12;curved=0;entryX=1.01;entryY=0.054;entryDx=0;entryDy=0;entryPerimeter=0;exitX=0.004;exitY=0.053;exitDx=0;exitDy=0;exitPerimeter=0;" edge="1" parent="1" source="hiGreWTvh3-nO5kUzk7D-211">
          <mxGeometry width="160" relative="1" as="geometry">
            <mxPoint x="2250.6949999999997" y="818" as="sourcePoint" />
            <mxPoint x="2201" y="819.56" as="targetPoint" />
            <Array as="points" />
          </mxGeometry>
        </mxCell>
        <mxCell id="hiGreWTvh3-nO5kUzk7D-435" value="" style="endArrow=diamondThin;endFill=1;endSize=24;html=1;rounded=0;fontSize=12;curved=0;entryX=1.01;entryY=0.054;entryDx=0;entryDy=0;entryPerimeter=0;exitX=0.033;exitY=0.016;exitDx=0;exitDy=0;exitPerimeter=0;" edge="1" parent="1" source="hiGreWTvh3-nO5kUzk7D-263">
          <mxGeometry width="160" relative="1" as="geometry">
            <mxPoint x="2514" y="822.44" as="sourcePoint" />
            <mxPoint x="2459" y="821" as="targetPoint" />
            <Array as="points">
              <mxPoint x="2524" y="822" />
            </Array>
          </mxGeometry>
        </mxCell>
        <mxCell id="hiGreWTvh3-nO5kUzk7D-438" value="" style="endArrow=diamondThin;endFill=1;endSize=24;html=1;rounded=0;fontSize=12;curved=0;entryX=0.994;entryY=0.095;entryDx=0;entryDy=0;entryPerimeter=0;" edge="1" parent="1" target="hiGreWTvh3-nO5kUzk7D-273">
          <mxGeometry width="160" relative="1" as="geometry">
            <mxPoint x="3059" y="826" as="sourcePoint" />
            <mxPoint x="2469" y="814" as="targetPoint" />
            <Array as="points" />
          </mxGeometry>
        </mxCell>
        <mxCell id="hiGreWTvh3-nO5kUzk7D-439" value="" style="endArrow=diamondThin;endFill=1;endSize=24;html=1;rounded=0;fontSize=12;curved=0;entryX=0.994;entryY=0.095;entryDx=0;entryDy=0;entryPerimeter=0;exitX=0.004;exitY=0.085;exitDx=0;exitDy=0;exitPerimeter=0;" edge="1" parent="1" source="hiGreWTvh3-nO5kUzk7D-293">
          <mxGeometry width="160" relative="1" as="geometry">
            <mxPoint x="3280" y="828" as="sourcePoint" />
            <mxPoint x="3217" y="827" as="targetPoint" />
            <Array as="points" />
          </mxGeometry>
        </mxCell>
        <mxCell id="hiGreWTvh3-nO5kUzk7D-440" value="" style="endArrow=diamondThin;endFill=1;endSize=24;html=1;rounded=0;fontSize=12;curved=0;entryX=1.01;entryY=0.054;entryDx=0;entryDy=0;entryPerimeter=0;exitX=0.512;exitY=-0.002;exitDx=0;exitDy=0;exitPerimeter=0;" edge="1" parent="1" source="hiGreWTvh3-nO5kUzk7D-358">
          <mxGeometry width="160" relative="1" as="geometry">
            <mxPoint x="4134" y="835" as="sourcePoint" />
            <mxPoint x="4069" y="819" as="targetPoint" />
            <Array as="points">
              <mxPoint x="4247" y="820" />
            </Array>
          </mxGeometry>
        </mxCell>
        <mxCell id="hiGreWTvh3-nO5kUzk7D-441" value="" style="endArrow=diamondThin;endFill=1;endSize=24;html=1;rounded=0;fontSize=12;curved=0;entryX=0.994;entryY=0.095;entryDx=0;entryDy=0;entryPerimeter=0;exitX=-0.002;exitY=0.078;exitDx=0;exitDy=0;exitPerimeter=0;" edge="1" parent="1" source="hiGreWTvh3-nO5kUzk7D-317">
          <mxGeometry width="160" relative="1" as="geometry">
            <mxPoint x="3777" y="822" as="sourcePoint" />
            <mxPoint x="3730" y="823" as="targetPoint" />
            <Array as="points" />
          </mxGeometry>
        </mxCell>
        <mxCell id="hiGreWTvh3-nO5kUzk7D-443" value="" style="endArrow=diamondThin;endFill=1;endSize=24;html=1;rounded=0;fontSize=12;curved=0;entryX=1;entryY=0.048;entryDx=0;entryDy=0;entryPerimeter=0;exitX=-0.006;exitY=0.059;exitDx=0;exitDy=0;exitPerimeter=0;" edge="1" parent="1" source="hiGreWTvh3-nO5kUzk7D-389" target="hiGreWTvh3-nO5kUzk7D-370">
          <mxGeometry width="160" relative="1" as="geometry">
            <mxPoint x="5209" y="828" as="sourcePoint" />
            <mxPoint x="5208" y="782" as="targetPoint" />
            <Array as="points" />
          </mxGeometry>
        </mxCell>
        <mxCell id="hiGreWTvh3-nO5kUzk7D-444" value="" style="endArrow=diamondThin;endFill=1;endSize=24;html=1;rounded=0;fontSize=12;curved=0;entryX=1;entryY=0.048;entryDx=0;entryDy=0;entryPerimeter=0;exitX=0.001;exitY=0.049;exitDx=0;exitDy=0;exitPerimeter=0;" edge="1" parent="1" source="hiGreWTvh3-nO5kUzk7D-408">
          <mxGeometry width="160" relative="1" as="geometry">
            <mxPoint x="5238" y="822" as="sourcePoint" />
            <mxPoint x="5148" y="821" as="targetPoint" />
            <Array as="points" />
          </mxGeometry>
        </mxCell>
        <mxCell id="hiGreWTvh3-nO5kUzk7D-445" value="" style="endArrow=diamondThin;endFill=1;endSize=24;html=1;rounded=0;fontSize=12;curved=0;entryX=0.5;entryY=0;entryDx=0;entryDy=0;exitX=0.75;exitY=0;exitDx=0;exitDy=0;" edge="1" parent="1" source="hiGreWTvh3-nO5kUzk7D-300" target="hiGreWTvh3-nO5kUzk7D-370">
          <mxGeometry width="160" relative="1" as="geometry">
            <mxPoint x="3377" y="716" as="sourcePoint" />
            <mxPoint x="3273" y="716" as="targetPoint" />
            <Array as="points">
              <mxPoint x="3671" y="745" />
              <mxPoint x="4685" y="745" />
            </Array>
          </mxGeometry>
        </mxCell>
        <mxCell id="hiGreWTvh3-nO5kUzk7D-446" value="" style="endArrow=diamondThin;endFill=1;endSize=24;html=1;rounded=0;fontSize=12;curved=0;entryX=0.5;entryY=0;entryDx=0;entryDy=0;exitX=0.5;exitY=0;exitDx=0;exitDy=0;" edge="1" parent="1" source="hiGreWTvh3-nO5kUzk7D-273" target="hiGreWTvh3-nO5kUzk7D-189">
          <mxGeometry width="160" relative="1" as="geometry">
            <mxPoint x="2498" y="848" as="sourcePoint" />
            <mxPoint x="2433" y="832" as="targetPoint" />
            <Array as="points">
              <mxPoint x="2919" y="739" />
              <mxPoint x="2099" y="737" />
            </Array>
          </mxGeometry>
        </mxCell>
        <mxCell id="hiGreWTvh3-nO5kUzk7D-447" value="" style="endArrow=diamondThin;endFill=1;endSize=24;html=1;rounded=0;fontSize=12;curved=0;exitX=0.25;exitY=0;exitDx=0;exitDy=0;entryX=0.5;entryY=0;entryDx=0;entryDy=0;" edge="1" parent="1" source="hiGreWTvh3-nO5kUzk7D-300" target="hiGreWTvh3-nO5kUzk7D-164">
          <mxGeometry width="160" relative="1" as="geometry">
            <mxPoint x="2938" y="820" as="sourcePoint" />
            <mxPoint x="2007" y="740" as="targetPoint" />
            <Array as="points">
              <mxPoint x="3554" y="724" />
              <mxPoint x="1270" y="728" />
            </Array>
          </mxGeometry>
        </mxCell>
        <mxCell id="hiGreWTvh3-nO5kUzk7D-449" value="" style="endArrow=diamondThin;endFill=1;endSize=24;html=1;rounded=0;fontSize=12;curved=0;exitX=0.5;exitY=0;exitDx=0;exitDy=0;entryX=0.38;entryY=0.009;entryDx=0;entryDy=0;entryPerimeter=0;" edge="1" parent="1" source="hiGreWTvh3-nO5kUzk7D-119" target="hiGreWTvh3-nO5kUzk7D-300">
          <mxGeometry width="160" relative="1" as="geometry">
            <mxPoint x="569" y="645" as="sourcePoint" />
            <mxPoint x="3587" y="685" as="targetPoint" />
            <Array as="points">
              <mxPoint x="533" y="705" />
              <mxPoint x="3586" y="696" />
            </Array>
          </mxGeometry>
        </mxCell>
        <mxCell id="hiGreWTvh3-nO5kUzk7D-450" value="" style="endArrow=diamondThin;endFill=1;endSize=24;html=1;rounded=0;fontSize=12;curved=0;entryX=0.38;entryY=0.009;entryDx=0;entryDy=0;entryPerimeter=0;exitX=0.5;exitY=0;exitDx=0;exitDy=0;" edge="1" parent="1" source="hiGreWTvh3-nO5kUzk7D-451">
          <mxGeometry width="160" relative="1" as="geometry">
            <mxPoint x="66" y="733" as="sourcePoint" />
            <mxPoint x="3616" y="811" as="targetPoint" />
            <Array as="points">
              <mxPoint x="-152" y="670" />
              <mxPoint x="3618" y="672" />
            </Array>
          </mxGeometry>
        </mxCell>
        <mxCell id="hiGreWTvh3-nO5kUzk7D-451" value="Estoque" style="swimlane;fontStyle=0;childLayout=stackLayout;horizontal=1;startSize=30;horizontalStack=0;resizeParent=1;resizeParentMax=0;resizeLast=0;collapsible=1;marginBottom=0;whiteSpace=wrap;html=1;fillColor=#d5e8d4;strokeColor=#82b366;" vertex="1" parent="1">
          <mxGeometry x="-231" y="810" width="165" height="60" as="geometry" />
        </mxCell>
        <mxCell id="hiGreWTvh3-nO5kUzk7D-455" value="" style="endArrow=diamondThin;endFill=0;endSize=24;html=1;rounded=0;fontSize=12;curved=0;entryX=0.803;entryY=0.008;entryDx=0;entryDy=0;entryPerimeter=0;exitX=0.288;exitY=0.006;exitDx=0;exitDy=0;exitPerimeter=0;" edge="1" parent="1" source="hiGreWTvh3-nO5kUzk7D-189" target="hiGreWTvh3-nO5kUzk7D-370">
          <mxGeometry width="160" relative="1" as="geometry">
            <mxPoint x="2049" y="711" as="sourcePoint" />
            <mxPoint x="4589" y="707" as="targetPoint" />
            <Array as="points">
              <mxPoint x="2055" y="714" />
              <mxPoint x="4763" y="711" />
            </Array>
          </mxGeometry>
        </mxCell>
        <mxCell id="hiGreWTvh3-nO5kUzk7D-456" value="" style="endArrow=diamondThin;endFill=1;endSize=24;html=1;rounded=0;fontSize=12;curved=0;entryX=1;entryY=0.233;entryDx=0;entryDy=0;entryPerimeter=0;exitX=0.029;exitY=0.146;exitDx=0;exitDy=0;exitPerimeter=0;" edge="1" parent="1" source="hiGreWTvh3-nO5kUzk7D-153" target="hiGreWTvh3-nO5kUzk7D-451">
          <mxGeometry width="160" relative="1" as="geometry">
            <mxPoint x="-9" y="825" as="sourcePoint" />
            <mxPoint x="-66" y="822" as="targetPoint" />
            <Array as="points" />
          </mxGeometry>
        </mxCell>
      </root>
    </mxGraphModel>
  </diagram>
</mxfile>
